<?xml version="1.0" encoding="UTF-8" standalone="no"?>
<!DOCTYPE svg PUBLIC "-//W3C//DTD SVG 1.1//EN" "http://www.w3.org/Graphics/SVG/1.1/DTD/svg11.dtd">
<svg xmlns="http://www.w3.org/2000/svg" version="1.1" viewBox="0.00 0.00 292.00 292.00">
<g stroke-width="2.00" fill="none" stroke-linecap="butt">
<path stroke="#6c5936" vector-effect="non-scaling-stroke" d="
  M 236.61 135.64
  L 192.38 92.36
  A 1.64 1.61 22.9 0 1 191.90 91.21
  C 191.92 87.70 191.57 84.48 192.71 80.93
  Q 198.15 64.00 203.56 46.79
  Q 204.04 45.27 202.99 46.48
  L 187.44 64.44
  A 0.46 0.46 0.0 0 1 186.66 64.27
  L 178.95 38.85
  A 0.22 0.22 0.0 0 0 178.56 38.78
  L 163.93 57.87
  A 0.41 0.41 0.0 0 1 163.24 57.80
  L 149.36 30.32
  A 1.11 1.10 44.7 0 1 149.35 29.32
  L 153.19 21.71
  Q 153.43 21.23 153.19 20.74
  L 147.50 9.28
  A 0.39 0.39 0.0 0 0 146.80 9.28
  L 140.92 20.63
  Q 140.63 21.19 140.91 21.76
  L 144.67 29.13
  A 1.56 1.53 45.4 0 1 144.67 30.52
  L 130.85 57.77
  A 0.36 0.35 -50.2 0 1 130.25 57.83
  L 115.88 38.91
  Q 115.53 38.45 115.36 39.00
  L 107.65 64.62
  A 0.35 0.35 0.0 0 1 107.05 64.75
  L 91.21 46.57
  Q 90.09 45.29 90.60 46.92
  Q 96.14 64.64 101.52 81.31
  C 102.56 84.51 102.20 87.80 102.16 91.09
  A 2.08 2.07 -21.6 0 1 101.54 92.52
  L 57.60 135.43
  A 0.74 0.73 -44.7 0 0 57.59 136.47
  L 146.31 224.81
  A 0.95 0.95 0.0 0 0 147.65 224.81
  L 236.61 136.36
  Q 236.97 136.00 236.61 135.64"
/>
<path stroke="#6c5936" vector-effect="non-scaling-stroke" d="
  M 131.50 40.31
  A 0.38 0.38 0.0 0 0 131.51 39.94
  L 129.82 36.76
  A 0.38 0.38 0.0 0 0 129.16 36.74
  L 127.31 39.93
  A 0.38 0.38 0.0 0 0 127.31 40.31
  L 129.10 43.30
  A 0.38 0.38 0.0 0 0 129.75 43.30
  L 131.50 40.31"
/>
<path stroke="#6c5936" vector-effect="non-scaling-stroke" d="
  M 162.58 40.05
  A 0.30 0.30 0.0 0 0 162.59 40.35
  L 164.43 43.36
  A 0.30 0.30 0.0 0 0 164.94 43.36
  L 166.83 40.21
  A 0.30 0.30 0.0 0 0 166.83 39.91
  L 164.90 36.67
  A 0.30 0.30 0.0 0 0 164.38 36.68
  L 162.58 40.05"
/>
<path stroke="#6c5936" vector-effect="non-scaling-stroke" d="
  M 106.10 49.54
  A 0.38 0.38 0.0 0 0 106.11 49.17
  L 104.37 45.89
  A 0.38 0.38 0.0 0 0 103.71 45.87
  L 101.82 49.01
  A 0.38 0.38 0.0 0 0 101.82 49.41
  L 103.67 52.48
  A 0.38 0.38 0.0 0 0 104.33 52.48
  L 106.10 49.54"
/>
<path stroke="#6c5936" vector-effect="non-scaling-stroke" d="
  M 192.28 49.51
  A 0.38 0.38 0.0 0 0 192.29 49.13
  L 190.51 45.87
  A 0.38 0.38 0.0 0 0 189.85 45.86
  L 187.92 49.05
  A 0.38 0.38 0.0 0 0 187.93 49.45
  L 189.83 52.43
  A 0.38 0.38 0.0 0 0 190.47 52.43
  L 192.28 49.51"
/>
<path stroke="#8c8c8c" vector-effect="non-scaling-stroke" d="
  M 64.02 253.06
  L 64.01 258.31
  Q 64.01 258.84 63.65 259.23
  Q 62.93 260.03 61.87 260.37
  C 49.08 264.47 47.53 251.03 49.60 242.67
  C 51.42 235.30 62.36 234.63 63.87 242.48
  Q 63.93 242.82 64.28 242.82
  L 67.67 242.78
  Q 67.96 242.77 67.92 242.49
  C 67.23 237.29 63.24 233.85 58.09 233.66
  Q 46.06 233.21 44.99 246.02
  C 44.30 254.19 46.09 262.74 55.29 264.23
  C 59.01 264.84 65.34 263.95 67.70 260.46
  Q 68.01 260.00 68.00 259.45
  L 67.98 249.50
  A 0.48 0.48 0.0 0 0 67.50 249.02
  L 57.75 249.04
  Q 57.05 249.04 57.04 249.75
  L 57.03 251.80
  Q 57.03 252.32 57.55 252.32
  L 63.31 252.35
  Q 64.02 252.35 64.02 253.06"
/>
<path stroke="#8c8c8c" vector-effect="non-scaling-stroke" d="
  M 163.75 252.92
  L 163.75 258.48
  A 1.13 1.13 0.0 0 1 163.34 259.35
  Q 162.25 260.28 160.96 260.59
  C 149.42 263.40 147.83 253.03 148.95 244.76
  Q 149.80 238.48 154.65 237.20
  C 158.67 236.14 162.80 238.03 163.57 242.43
  Q 163.64 242.83 164.04 242.82
  L 167.49 242.76
  Q 167.82 242.75 167.75 242.43
  Q 166.28 234.86 158.90 233.80
  Q 152.09 232.82 148.17 237.02
  C 143.97 241.53 143.85 250.89 145.61 256.20
  C 148.24 264.10 156.30 265.99 163.60 263.26
  Q 165.73 262.46 167.32 260.70
  Q 167.75 260.21 167.75 259.56
  L 167.75 249.52
  A 0.48 0.48 0.0 0 0 167.27 249.04
  L 157.27 249.03
  Q 156.82 249.03 156.82 249.48
  L 156.81 251.96
  Q 156.81 252.35 157.21 252.35
  L 163.17 252.34
  Q 163.75 252.34 163.75 252.92"
/>
<path stroke="#8c8c8c" vector-effect="non-scaling-stroke" d="
  M 79.07 246.86
  A 0.42 0.42 0.0 0 1 78.65 246.44
  L 78.65 237.79
  A 0.42 0.42 0.0 0 1 79.07 237.37
  L 93.11 237.34
  A 0.42 0.42 0.0 0 0 93.53 236.92
  L 93.50 234.43
  A 0.42 0.42 0.0 0 0 93.08 234.01
  L 74.98 234.00
  A 0.42 0.42 0.0 0 0 74.56 234.42
  L 74.55 263.56
  A 0.42 0.42 0.0 0 0 74.97 263.98
  L 93.30 263.97
  A 0.42 0.42 0.0 0 0 93.72 263.55
  L 93.74 261.13
  A 0.42 0.42 0.0 0 0 93.32 260.71
  L 79.06 260.70
  A 0.42 0.42 0.0 0 1 78.64 260.28
  L 78.67 250.65
  A 0.42 0.42 0.0 0 1 79.09 250.23
  L 91.16 250.21
  A 0.42 0.42 0.0 0 0 91.58 249.79
  L 91.60 247.31
  A 0.42 0.42 0.0 0 0 91.18 246.89
  L 79.07 246.86"
/>
<path stroke="#8c8c8c" vector-effect="non-scaling-stroke" d="
  M 102.76 241.34
  L 111.72 263.41
  Q 111.97 264.01 112.61 264.00
  L 114.29 263.97
  Q 115.10 263.95 115.40 263.20
  L 124.12 241.71
  Q 124.67 240.35 124.65 241.82
  L 124.36 263.57
  A 0.38 0.37 -90.0 0 0 124.73 263.95
  L 128.15 263.95
  Q 128.51 263.95 128.51 263.59
  L 128.50 234.63
  A 0.62 0.62 0.0 0 0 127.88 234.01
  L 123.78 234.01
  Q 123.26 234.01 123.06 234.49
  L 113.94 257.23
  Q 113.51 258.31 113.08 257.23
  L 104.03 234.61
  Q 103.78 233.99 103.12 234.00
  L 99.27 234.01
  Q 98.56 234.01 98.56 234.73
  L 98.56 263.28
  Q 98.56 264.00 99.28 263.99
  L 102.17 263.94
  Q 102.76 263.93 102.75 263.33
  L 102.37 241.43
  Q 102.35 240.34 102.76 241.34"
/>
<path stroke="#8c8c8c" vector-effect="non-scaling-stroke" d="
  M 191.38 255.25
  C 191.34 262.96 177.80 263.58 177.76 254.43
  Q 177.71 244.43 177.75 234.33
  Q 177.75 234.03 177.45 234.03
  L 174.04 233.99
  Q 173.75 233.99 173.75 234.29
  Q 173.73 244.16 173.76 254.26
  C 173.79 261.70 179.76 265.35 186.65 264.23
  Q 195.50 262.78 195.50 253.69
  Q 195.51 244.72 195.51 234.38
  Q 195.51 234.04 195.17 234.04
  L 191.96 233.99
  Q 191.43 233.99 191.43 234.52
  Q 191.43 245.62 191.38 255.25"
/>
<path stroke="#8c8c8c" vector-effect="non-scaling-stroke" d="
  M 206.33 251.82
  L 211.80 251.90
  Q 212.57 251.91 212.94 252.59
  L 218.81 263.56
  Q 219.05 264.01 219.57 264.00
  L 222.89 263.94
  Q 223.54 263.92 223.22 263.36
  L 216.68 251.60
  Q 216.37 251.05 216.94 250.79
  Q 221.55 248.60 221.91 244.18
  Q 222.62 235.39 214.24 234.32
  Q 210.02 233.78 202.16 234.05
  Q 201.53 234.07 201.53 234.70
  L 201.52 263.51
  Q 201.52 264.00 202.01 263.99
  L 204.98 263.95
  Q 205.66 263.94 205.66 263.27
  L 205.62 252.52
  Q 205.61 251.81 206.33 251.82"
/>
<path stroke="#8c8c8c" vector-effect="non-scaling-stroke" d="
  M 244.73 253.83
  C 244.76 258.64 241.98 261.62 236.77 261.00
  Q 231.09 260.32 231.02 254.35
  Q 230.90 244.98 230.99 234.49
  Q 231.00 234.01 230.51 234.01
  L 227.50 234.01
  Q 226.98 234.01 226.98 234.54
  Q 227.05 243.20 226.96 253.36
  C 226.92 257.61 228.28 261.56 232.39 263.30
  C 239.44 266.27 248.62 263.32 248.70 254.56
  Q 248.79 244.94 248.72 234.44
  Q 248.72 234.01 248.29 234.01
  L 245.02 234.00
  Q 244.72 234.00 244.72 234.30
  Q 244.67 243.96 244.73 253.83"
/>
<path stroke="#8c8c8c" vector-effect="non-scaling-stroke" d="
  M 74.75 280.59
  A 4.01 4.01 0.0 0 0 70.74 276.58
  L 70.02 276.58
  A 4.01 4.01 0.0 0 0 66.01 280.59
  L 66.01 282.21
  A 4.01 4.01 0.0 0 0 70.02 286.22
  L 70.74 286.22
  A 4.01 4.01 0.0 0 0 74.75 282.21
  L 74.75 280.59"
/>
<path stroke="#8c8c8c" vector-effect="non-scaling-stroke" d="
  M 104.33 278.57
  C 105.64 276.70 107.63 277.93 108.57 279.45
  Q 109.07 280.26 109.38 279.35
  C 110.35 276.41 102.54 274.77 102.79 279.70
  A 1.90 1.89 6.6 0 0 104.18 281.44
  L 107.69 282.40
  A 1.16 1.15 31.7 0 1 108.16 284.37
  Q 106.93 285.48 105.09 284.94
  Q 104.48 284.77 104.19 284.20
  Q 103.95 283.73 103.64 283.28
  Q 103.47 283.04 103.18 282.99
  Q 102.79 282.92 102.51 283.40
  A 0.65 0.62 49.2 0 0 102.48 283.99
  C 104.09 287.57 110.69 286.97 109.60 282.42
  A 1.62 1.62 0.0 0 0 108.44 281.22
  L 104.95 280.27
  A 1.11 1.11 0.0 0 1 104.33 278.57"
/>
<path stroke="#8c8c8c" vector-effect="non-scaling-stroke" d="
  M 160.8800 286.3400
  A 4.93 4.56 90.0 0 0 165.4400 281.4100
  A 4.93 4.56 90.0 0 0 160.8800 276.4800
  A 4.93 4.56 90.0 0 0 156.3200 281.4100
  A 4.93 4.56 90.0 0 0 160.8800 286.3400"
/>
<path stroke="#8c8c8c" vector-effect="non-scaling-stroke" d="
  M 199.48 283.87
  A 2.35 2.34 -65.8 0 1 196.69 284.94
  C 193.71 283.94 193.90 278.01 197.24 277.76
  Q 199.16 277.62 200.10 279.47
  A 0.54 0.54 0.0 0 0 200.78 279.73
  L 201.02 279.64
  Q 201.31 279.53 201.21 279.23
  Q 200.22 276.31 197.21 276.59
  Q 192.94 276.99 193.24 281.95
  C 193.59 287.60 201.00 287.44 201.18 282.98
  Q 201.22 282.00 200.48 282.65
  Q 199.87 283.18 199.48 283.87"
/>
<path stroke="#8c8c8c" vector-effect="non-scaling-stroke" d="
  M 59.37 280.33
  L 57.35 276.99
  A 0.54 0.54 0.0 0 0 56.86 276.74
  L 56.28 276.77
  Q 55.61 276.81 55.98 277.37
  C 57.60 279.81 59.66 281.99 59.01 285.12
  A 0.66 0.66 0.0 0 0 59.60 285.90
  L 59.99 285.93
  A 0.44 0.44 0.0 0 0 60.47 285.49
  C 60.50 284.07 60.26 282.57 61.09 281.32
  Q 62.51 279.20 63.65 277.28
  Q 63.90 276.87 63.43 276.79
  L 62.92 276.72
  Q 62.43 276.64 62.18 277.07
  L 60.27 280.32
  Q 59.83 281.08 59.37 280.33"
/>
<path stroke="#8c8c8c" vector-effect="non-scaling-stroke" d="
  M 80.88 285.00
  Q 79.19 284.93 79.04 283.25
  Q 78.78 280.33 78.91 277.31
  A 0.51 0.51 0.0 0 0 78.44 276.78
  L 78.03 276.75
  A 0.40 0.39 -85.1 0 0 77.60 277.12
  C 77.45 279.80 76.43 286.01 80.73 286.22
  C 86.12 286.48 84.89 280.62 84.83 277.25
  Q 84.82 276.74 84.32 276.77
  L 83.94 276.80
  A 0.46 0.46 0.0 0 0 83.51 277.26
  L 83.49 282.81
  Q 83.49 285.11 81.19 285.01
  L 80.88 285.00"
/>
<path stroke="#8c8c8c" vector-effect="non-scaling-stroke" d="
  M 89.96 282.12
  L 92.62 282.22
  Q 93.61 282.26 93.68 283.25
  L 93.81 285.23
  Q 93.85 285.80 94.41 285.92
  L 94.78 286.00
  Q 95.31 286.12 95.32 285.57
  Q 95.38 283.48 94.49 281.72
  Q 94.26 281.29 94.59 280.93
  C 96.24 279.08 94.69 276.85 92.47 276.81
  Q 90.53 276.77 88.64 276.73
  Q 87.90 276.71 87.90 277.45
  L 87.92 285.30
  A 0.63 0.63 0.0 0 0 88.57 285.93
  L 88.83 285.93
  Q 89.30 285.92 89.30 285.45
  L 89.28 282.77
  Q 89.28 282.09 89.96 282.12"
/>
<path stroke="#8c8c8c" vector-effect="non-scaling-stroke" d="
  M 114.59 282.19
  C 116.95 282.51 119.90 282.05 119.53 278.84
  A 2.28 2.27 87.4 0 0 117.33 276.83
  L 113.34 276.73
  Q 112.63 276.71 112.63 277.42
  L 112.62 285.45
  Q 112.62 285.93 113.10 285.93
  L 113.54 285.93
  Q 114.00 285.94 114.00 285.47
  L 113.98 282.73
  Q 113.97 282.11 114.59 282.19"
/>
<path stroke="#8c8c8c" vector-effect="non-scaling-stroke" d="
  M 124.27 283.40
  L 126.93 283.41
  A 0.80 0.78 78.9 0 1 127.66 283.91
  Q 127.82 284.31 127.82 284.75
  Q 127.81 285.35 128.31 285.70
  Q 128.62 285.93 129.02 285.94
  Q 129.81 285.96 129.54 285.21
  L 126.99 278.20
  Q 125.82 275.00 124.50 278.14
  Q 123.24 281.12 121.75 285.36
  A 0.41 0.41 0.0 0 0 122.02 285.89
  L 122.29 285.97
  A 0.63 0.63 0.0 0 0 123.02 285.66
  Q 123.45 284.87 123.59 283.98
  Q 123.68 283.39 124.27 283.40"
/>
<path stroke="#8c8c8c" vector-effect="non-scaling-stroke" d="
  M 134.09 282.11
  L 137.00 282.22
  A 0.89 0.88 83.6 0 1 137.81 282.87
  Q 138.09 283.98 137.97 285.26
  Q 137.93 285.78 138.44 285.86
  L 139.05 285.95
  Q 139.52 286.02 139.55 285.53
  Q 139.66 283.28 138.71 281.59
  Q 138.53 281.27 138.79 281.02
  C 140.28 279.51 139.33 277.11 137.28 276.89
  Q 135.04 276.65 132.78 276.78
  Q 132.15 276.82 132.15 277.45
  L 132.10 285.33
  Q 132.10 285.81 132.58 285.85
  L 133.12 285.88
  A 0.38 0.38 0.0 0 0 133.53 285.50
  L 133.52 282.66
  Q 133.52 282.09 134.09 282.11"
/>
<path stroke="#8c8c8c" vector-effect="non-scaling-stroke" d="
  M 144.02 280.41
  L 143.95 277.23
  A 0.45 0.44 -88.6 0 0 143.54 276.79
  L 143.16 276.77
  Q 142.63 276.73 142.63 277.26
  L 142.62 285.45
  A 0.49 0.48 3.3 0 0 143.05 285.93
  L 143.43 285.97
  Q 143.95 286.02 143.96 285.49
  C 143.99 284.31 143.65 282.90 144.72 282.06
  A 0.83 0.83 0.0 0 1 145.91 282.24
  L 148.22 285.61
  A 0.88 0.87 -19.6 0 0 149.03 285.99
  L 149.68 285.93
  Q 150.22 285.89 149.90 285.45
  L 146.71 281.03
  Q 146.33 280.51 146.80 280.06
  L 149.73 277.30
  Q 149.98 277.06 149.67 276.90
  L 149.29 276.69
  A 0.93 0.92 -53.8 0 0 148.21 276.86
  L 144.54 280.62
  A 0.30 0.30 0.0 0 1 144.02 280.41"
/>
<path stroke="#8c8c8c" vector-effect="non-scaling-stroke" d="
  M 171.74 285.04
  Q 169.49 285.01 169.49 282.76
  L 169.48 277.23
  A 0.47 0.46 -1.8 0 0 168.98 276.77
  L 168.70 276.79
  Q 168.07 276.84 168.06 277.47
  C 168.01 279.89 167.19 285.63 170.68 286.13
  C 176.55 286.98 175.71 280.62 175.38 277.06
  Q 175.35 276.69 174.98 276.73
  L 174.59 276.77
  Q 174.02 276.83 174.02 277.41
  L 174.00 283.17
  A 1.49 1.47 -22.1 0 1 173.54 284.24
  Q 172.69 285.05 171.74 285.04"
/>
<path stroke="#8c8c8c" vector-effect="non-scaling-stroke" d="
  M 180.72 282.08
  L 183.52 282.24
  Q 184.51 282.29 184.50 283.27
  L 184.48 285.24
  Q 184.47 285.75 184.98 285.85
  L 185.78 286.00
  Q 186.23 286.08 186.15 285.64
  L 185.40 281.57
  Q 185.31 281.09 185.55 280.66
  C 186.49 278.99 185.65 276.96 183.59 276.85
  Q 181.49 276.74 179.20 276.72
  Q 178.62 276.72 178.62 277.29
  L 178.61 285.45
  Q 178.61 285.92 179.08 285.93
  L 179.52 285.94
  Q 180.00 285.94 180.00 285.47
  L 179.99 282.78
  A 0.70 0.69 -88.5 0 1 180.72 282.08"
/>
<path stroke="#8c8c8c" vector-effect="non-scaling-stroke" d="
  M 206.17 282.11
  L 208.73 282.20
  Q 209.97 282.24 209.99 283.48
  L 210.03 285.52
  A 0.29 0.28 -85.2 0 0 210.26 285.80
  L 211.21 285.97
  Q 211.43 286.01 211.45 285.79
  Q 211.75 283.64 210.79 281.76
  Q 210.63 281.44 210.82 281.14
  C 213.69 276.53 207.46 276.49 204.74 276.82
  Q 204.17 276.89 204.17 277.46
  L 204.09 285.29
  A 0.59 0.58 -89.5 0 0 204.66 285.88
  L 204.94 285.88
  Q 205.52 285.90 205.52 285.31
  L 205.52 282.74
  Q 205.52 282.09 206.17 282.11"
/>
<path stroke="#8c8c8c" vector-effect="non-scaling-stroke" d="
  M 216.72 283.40
  L 219.14 283.40
  Q 220.08 283.40 220.04 284.34
  Q 219.99 285.80 221.30 285.92
  Q 221.91 285.98 221.74 285.39
  Q 220.61 281.43 219.08 277.96
  Q 217.85 275.18 216.76 278.01
  L 213.97 285.31
  A 0.42 0.42 0.0 0 0 214.24 285.86
  L 214.51 285.95
  A 0.73 0.73 0.0 0 0 215.42 285.46
  L 215.83 284.07
  Q 216.02 283.40 216.72 283.40"
/>
<path stroke="#8c8c8c" vector-effect="non-scaling-stroke" d="
  M 226.00 280.67
  A 0.25 0.25 0.0 0 1 225.75 280.42
  L 225.75 278.25
  A 0.25 0.25 0.0 0 1 226.00 278.00
  L 230.53 277.91
  A 0.25 0.25 0.0 0 0 230.77 277.70
  L 230.87 277.06
  A 0.25 0.25 0.0 0 0 230.63 276.77
  L 224.67 276.76
  A 0.25 0.25 0.0 0 0 224.42 277.01
  L 224.42 285.61
  A 0.25 0.25 0.0 0 0 224.65 285.86
  L 225.45 285.91
  A 0.25 0.25 0.0 0 0 225.72 285.66
  L 225.75 282.08
  A 0.25 0.25 0.0 0 1 225.99 281.83
  L 229.99 281.73
  A 0.25 0.25 0.0 0 0 230.22 281.53
  L 230.33 281.04
  A 0.25 0.25 0.0 0 0 230.09 280.74
  L 226.00 280.67"
/>
<path stroke="#8c8c8c" vector-effect="non-scaling-stroke" d="
  M 236.92 278.24
  A 0.26 0.26 0.0 0 1 237.17 277.98
  L 239.70 277.93
  A 0.26 0.26 0.0 0 0 239.96 277.67
  L 239.98 277.03
  A 0.26 0.26 0.0 0 0 239.72 276.76
  L 232.65 276.78
  A 0.26 0.26 0.0 0 0 232.41 277.14
  L 232.65 277.73
  A 0.26 0.26 0.0 0 0 232.88 277.89
  L 235.35 278.03
  A 0.26 0.26 0.0 0 1 235.60 278.29
  L 235.57 285.62
  A 0.26 0.26 0.0 0 0 235.82 285.88
  L 236.64 285.93
  A 0.26 0.26 0.0 0 0 236.91 285.67
  L 236.92 278.24"
/>
<path stroke="#6c5936" vector-effect="non-scaling-stroke" d="
  M 149.09 21.50
  A 0.39 0.39 0.0 0 0 149.09 21.16
  L 147.37 17.56
  A 0.39 0.39 0.0 0 0 146.67 17.55
  L 144.80 21.22
  A 0.39 0.39 0.0 0 0 144.81 21.58
  L 146.72 25.06
  A 0.39 0.39 0.0 0 0 147.42 25.04
  L 149.09 21.50"
/>
<path stroke="#6c5936" vector-effect="non-scaling-stroke" d="
  M 160.87 61.82
  A 0.41 0.41 0.0 0 0 160.91 61.39
  L 147.50 34.75
  A 0.41 0.41 0.0 0 0 146.77 34.75
  L 133.32 61.26
  A 0.41 0.41 0.0 0 0 133.35 61.69
  L 146.80 79.50
  A 0.41 0.41 0.0 0 0 147.46 79.50
  L 160.87 61.82"
/>
<path stroke="#6c5936" vector-effect="non-scaling-stroke" d="
  M 128.61 62.06
  A 0.35 0.35 0.0 0 0 128.58 61.70
  L 117.44 47.06
  A 0.35 0.35 0.0 0 0 116.83 47.17
  L 110.39 68.38
  A 0.35 0.35 0.0 0 0 110.46 68.72
  L 119.52 79.15
  A 0.35 0.35 0.0 0 0 120.09 79.08
  L 128.61 62.06"
/>
<path stroke="#6c5936" vector-effect="non-scaling-stroke" d="
  M 177.54 47.18
  A 0.35 0.35 0.0 0 0 176.93 47.08
  L 165.62 61.97
  A 0.35 0.35 0.0 0 0 165.59 62.35
  L 174.14 79.05
  A 0.35 0.35 0.0 0 0 174.72 79.12
  L 183.89 68.57
  A 0.35 0.35 0.0 0 0 183.96 68.23
  L 177.54 47.18"
/>
<path stroke="#6c5936" vector-effect="non-scaling-stroke" d="
  M 190.56 75.46
  L 194.78 62.53
  A 0.27 0.27 0.0 0 0 194.32 62.27
  L 188.49 68.85
  Q 188.11 69.29 188.28 69.84
  L 190.02 75.45
  Q 190.28 76.30 190.56 75.46"
/>
<path stroke="#6c5936" vector-effect="non-scaling-stroke" d="
  M 104.23 75.48
  C 104.75 73.62 105.68 71.54 105.87 69.62
  Q 105.91 69.18 105.63 68.86
  L 100.11 62.64
  Q 99.00 61.39 99.51 62.99
  L 103.49 75.50
  Q 103.88 76.73 104.23 75.48"
/>
<path stroke="#6c5936" vector-effect="non-scaling-stroke" d="
  M 131.50 65.63
  A 0.35 0.35 0.0 0 0 130.90 65.69
  L 123.57 80.47
  A 0.35 0.35 0.0 0 0 123.88 80.98
  L 142.47 81.00
  A 0.35 0.35 0.0 0 0 142.75 80.43
  L 131.50 65.63"
/>
<path stroke="#6c5936" vector-effect="non-scaling-stroke" d="
  M 170.27 80.99
  A 0.35 0.35 0.0 0 0 170.58 80.48
  L 163.15 65.99
  A 0.35 0.35 0.0 0 0 162.56 65.94
  L 151.45 80.39
  A 0.35 0.35 0.0 0 0 151.73 80.95
  L 170.27 80.99"
/>
<path stroke="#6c5936" vector-effect="non-scaling-stroke" d="
  M 185.49 73.32
  A 0.37 0.37 0.0 0 0 184.86 73.18
  L 178.50 80.30
  A 0.37 0.37 0.0 0 0 178.78 80.92
  L 187.29 81.00
  A 0.37 0.37 0.0 0 0 187.65 80.53
  L 185.49 73.32"
/>
<path stroke="#6c5936" vector-effect="non-scaling-stroke" d="
  M 115.35 80.99
  A 0.36 0.36 0.0 0 0 115.62 80.39
  L 109.40 73.27
  A 0.36 0.36 0.0 0 0 108.78 73.40
  L 106.60 80.51
  A 0.36 0.36 0.0 0 0 106.95 80.97
  L 115.35 80.99"
/>
<path stroke="#6c5936" vector-effect="non-scaling-stroke" d="
  M 188.20 85.14
  A 0.40 0.40 0.0 0 0 187.80 84.74
  L 106.28 84.74
  A 0.40 0.40 0.0 0 0 105.88 85.14
  L 105.88 88.34
  A 0.40 0.40 0.0 0 0 106.28 88.74
  L 187.80 88.74
  A 0.40 0.40 0.0 0 0 188.20 88.34
  L 188.20 85.14"
/>
<path stroke="#6c5936" vector-effect="non-scaling-stroke" d="
  M 103.97 97.53
  L 82.86 118.31
  Q 81.01 120.13 83.20 118.74
  L 116.68 97.39
  Q 117.68 96.76 116.50 96.75
  L 105.95 96.72
  Q 104.79 96.72 103.97 97.53"
/>
<path stroke="#6c5936" vector-effect="non-scaling-stroke" d="
  M 158.39 97.30
  A 0.31 0.31 0.0 0 0 158.20 96.75
  L 135.59 96.73
  A 0.31 0.31 0.0 0 0 135.40 97.29
  L 146.75 106.04
  A 0.31 0.31 0.0 0 0 147.13 106.04
  L 158.39 97.30"
/>
<path stroke="#6c5936" vector-effect="non-scaling-stroke" d="
  M 177.10 97.34
  L 211.18 118.95
  Q 213.30 120.30 211.51 118.54
  L 189.63 97.10
  Q 189.26 96.73 188.73 96.73
  L 177.28 96.72
  Q 176.12 96.72 177.10 97.34"
/>
<path stroke="#6c5936" vector-effect="non-scaling-stroke" d="
  M 142.25 109.71
  A 0.31 0.31 0.0 0 0 142.25 109.22
  L 128.64 98.78
  A 0.31 0.31 0.0 0 0 128.16 98.93
  L 118.35 127.50
  A 0.31 0.31 0.0 0 0 118.83 127.85
  L 142.25 109.71"
/>
<path stroke="#6c5936" vector-effect="non-scaling-stroke" d="
  M 165.77 98.89
  A 0.32 0.32 0.0 0 0 165.28 98.74
  L 151.63 109.20
  A 0.32 0.32 0.0 0 0 151.63 109.70
  L 175.09 127.88
  A 0.32 0.32 0.0 0 0 175.59 127.52
  L 165.77 98.89"
/>
<path stroke="#6c5936" vector-effect="non-scaling-stroke" d="
  M 121.73 101.33
  A 0.33 0.33 0.0 0 0 121.25 100.94
  L 70.93 132.90
  A 0.33 0.33 0.0 0 0 71.11 133.51
  L 110.48 133.46
  A 0.33 0.33 0.0 0 0 110.80 133.24
  L 121.73 101.33"
/>
<path stroke="#6c5936" vector-effect="non-scaling-stroke" d="
  M 222.98 133.50
  A 0.30 0.30 0.0 0 0 223.15 132.95
  L 172.69 100.96
  A 0.30 0.30 0.0 0 0 172.25 101.31
  L 183.16 133.26
  A 0.30 0.30 0.0 0 0 183.44 133.46
  L 222.98 133.50"
/>
<path stroke="#6c5936" vector-effect="non-scaling-stroke" d="
  M 121.23 132.87
  A 0.34 0.34 0.0 0 0 121.44 133.48
  L 172.44 133.48
  A 0.34 0.34 0.0 0 0 172.65 132.87
  L 147.15 113.15
  A 0.34 0.34 0.0 0 0 146.73 113.15
  L 121.23 132.87"
/>
<path stroke="#6c5936" vector-effect="non-scaling-stroke" d="
  M 120.18 191.09
  L 138.87 209.72
  Q 139.70 210.55 139.27 209.46
  L 111.17 139.34
  A 0.98 0.98 0.0 0 0 110.26 138.73
  L 68.04 138.74
  Q 67.35 138.74 67.84 139.22
  Q 93.11 164.41 119.51 190.60
  Q 119.75 190.83 120.04 190.99
  A 0.57 0.48 -4.7 0 1 120.18 191.09"
/>
<path stroke="#6c5936" vector-effect="non-scaling-stroke" d="
  M 177.18 139.11
  A 0.32 0.32 0.0 0 0 176.88 138.67
  L 117.11 138.78
  A 0.32 0.32 0.0 0 0 116.81 139.22
  L 146.83 213.66
  A 0.32 0.32 0.0 0 0 147.42 213.66
  L 177.18 139.11"
/>
<path stroke="#6c5936" vector-effect="non-scaling-stroke" d="
  M 182.88 139.31
  L 154.83 209.59
  Q 154.38 210.71 155.24 209.86
  L 226.05 139.36
  Q 226.68 138.73 225.80 138.73
  L 183.72 138.74
  Q 183.11 138.74 182.88 139.31"
/>
<path stroke="#8c8c8c" vector-effect="non-scaling-stroke" d="
  M 205.57 237.99
  L 205.59 247.93
  A 0.61 0.61 0.0 0 0 206.20 248.54
  L 212.35 248.53
  A 5.66 5.37 -0.1 0 0 218.00 243.15
  L 218.00 242.73
  A 5.66 5.37 -0.1 0 0 212.33 237.37
  L 206.18 237.38
  A 0.61 0.61 0.0 0 0 205.57 237.99"
/>
<path stroke="#8c8c8c" vector-effect="non-scaling-stroke" d="
  M 70.3411 285.0898
  A 3.71 3.10 90.6 0 0 73.4798 281.4125
  A 3.71 3.10 90.6 0 0 70.4189 277.6702
  A 3.71 3.10 90.6 0 0 67.2802 281.3475
  A 3.71 3.10 90.6 0 0 70.3411 285.0898"
/>
<path stroke="#8c8c8c" vector-effect="non-scaling-stroke" d="
  M 160.8119 285.0895
  A 3.70 3.13 90.9 0 0 163.9996 281.4392
  A 3.70 3.13 90.9 0 0 160.9281 277.6905
  A 3.70 3.13 90.9 0 0 157.7404 281.3408
  A 3.70 3.13 90.9 0 0 160.8119 285.0895"
/>
<path stroke="#8c8c8c" vector-effect="non-scaling-stroke" d="
  M 93.6535 278.7460
  A 0.85 0.85 0.0 0 0 92.7829 277.9170
  L 90.0438 277.9839
  A 0.85 0.85 0.0 0 0 89.2148 278.8544
  L 89.2465 280.1540
  A 0.85 0.85 0.0 0 0 90.1171 280.9830
  L 92.8562 280.9161
  A 0.85 0.85 0.0 0 0 93.6852 280.0456
  L 93.6535 278.7460"
/>
<path stroke="#8c8c8c" vector-effect="non-scaling-stroke" d="
  M 113.97 278.28
  L 114.00 280.72
  A 0.31 0.31 0.0 0 0 114.31 281.02
  L 116.39 281.00
  A 1.77 1.32 -0.7 0 0 118.14 279.65
  L 118.14 279.23
  A 1.77 1.32 -0.7 0 0 116.35 277.94
  L 114.27 277.96
  A 0.31 0.31 0.0 0 0 113.97 278.28"
/>
<path stroke="#8c8c8c" vector-effect="non-scaling-stroke" d="
  M 125.99 279.20
  A 0.32 0.32 0.0 0 0 125.39 279.18
  L 124.43 281.76
  A 0.32 0.32 0.0 0 0 124.73 282.19
  L 126.51 282.24
  A 0.32 0.32 0.0 0 0 126.82 281.82
  L 125.99 279.20"
/>
<path stroke="#8c8c8c" vector-effect="non-scaling-stroke" d="
  M 137.9332 278.7355
  A 0.83 0.83 0.0 0 0 137.0832 277.9260
  L 134.2640 277.9949
  A 0.83 0.83 0.0 0 0 133.4545 278.8449
  L 133.4868 280.1645
  A 0.83 0.83 0.0 0 0 134.3368 280.9740
  L 137.1560 280.9051
  A 0.83 0.83 0.0 0 0 137.9655 280.0551
  L 137.9332 278.7355"
/>
<path stroke="#8c8c8c" vector-effect="non-scaling-stroke" d="
  M 179.94 278.38
  L 179.98 280.60
  A 0.44 0.44 0.0 0 0 180.42 281.03
  L 182.69 280.99
  A 1.85 1.28 -0.9 0 0 184.52 279.68
  L 184.52 279.14
  A 1.85 1.28 -0.9 0 0 182.65 277.89
  L 180.38 277.93
  A 0.44 0.44 0.0 0 0 179.94 278.38"
/>
<path stroke="#8c8c8c" vector-effect="non-scaling-stroke" d="
  M 205.49 278.43
  L 205.56 280.60
  A 0.43 0.43 0.0 0 0 206.00 281.02
  L 208.47 280.94
  A 1.64 1.37 -1.9 0 0 210.06 279.51
  L 210.05 279.21
  A 1.64 1.37 -1.9 0 0 208.37 277.90
  L 205.90 277.98
  A 0.43 0.43 0.0 0 0 205.49 278.43"
/>
<path stroke="#8c8c8c" vector-effect="non-scaling-stroke" d="
  M 218.77 282.21
  A 0.32 0.32 0.0 0 0 219.07 281.80
  L 218.26 279.18
  A 0.32 0.32 0.0 0 0 217.65 279.16
  L 216.70 281.78
  A 0.32 0.32 0.0 0 0 217.00 282.21
  L 218.77 282.21"
/>
</g>
<path fill="#1a1a1a" d="
  M 0.00 0.00
  L 292.00 0.00
  L 292.00 292.00
  L 0.00 292.00
  L 0.00 0.00
  Z
  M 236.61 135.64
  L 192.38 92.36
  A 1.64 1.61 22.9 0 1 191.90 91.21
  C 191.92 87.70 191.57 84.48 192.71 80.93
  Q 198.15 64.00 203.56 46.79
  Q 204.04 45.27 202.99 46.48
  L 187.44 64.44
  A 0.46 0.46 0.0 0 1 186.66 64.27
  L 178.95 38.85
  A 0.22 0.22 0.0 0 0 178.56 38.78
  L 163.93 57.87
  A 0.41 0.41 0.0 0 1 163.24 57.80
  L 149.36 30.32
  A 1.11 1.10 44.7 0 1 149.35 29.32
  L 153.19 21.71
  Q 153.43 21.23 153.19 20.74
  L 147.50 9.28
  A 0.39 0.39 0.0 0 0 146.80 9.28
  L 140.92 20.63
  Q 140.63 21.19 140.91 21.76
  L 144.67 29.13
  A 1.56 1.53 45.4 0 1 144.67 30.52
  L 130.85 57.77
  A 0.36 0.35 -50.2 0 1 130.25 57.83
  L 115.88 38.91
  Q 115.53 38.45 115.36 39.00
  L 107.65 64.62
  A 0.35 0.35 0.0 0 1 107.05 64.75
  L 91.21 46.57
  Q 90.09 45.29 90.60 46.92
  Q 96.14 64.64 101.52 81.31
  C 102.56 84.51 102.20 87.80 102.16 91.09
  A 2.08 2.07 -21.6 0 1 101.54 92.52
  L 57.60 135.43
  A 0.74 0.73 -44.7 0 0 57.59 136.47
  L 146.31 224.81
  A 0.95 0.95 0.0 0 0 147.65 224.81
  L 236.61 136.36
  Q 236.97 136.00 236.61 135.64
  Z
  M 131.50 40.31
  A 0.38 0.38 0.0 0 0 131.51 39.94
  L 129.82 36.76
  A 0.38 0.38 0.0 0 0 129.16 36.74
  L 127.31 39.93
  A 0.38 0.38 0.0 0 0 127.31 40.31
  L 129.10 43.30
  A 0.38 0.38 0.0 0 0 129.75 43.30
  L 131.50 40.31
  Z
  M 162.58 40.05
  A 0.30 0.30 0.0 0 0 162.59 40.35
  L 164.43 43.36
  A 0.30 0.30 0.0 0 0 164.94 43.36
  L 166.83 40.21
  A 0.30 0.30 0.0 0 0 166.83 39.91
  L 164.90 36.67
  A 0.30 0.30 0.0 0 0 164.38 36.68
  L 162.58 40.05
  Z
  M 106.10 49.54
  A 0.38 0.38 0.0 0 0 106.11 49.17
  L 104.37 45.89
  A 0.38 0.38 0.0 0 0 103.71 45.87
  L 101.82 49.01
  A 0.38 0.38 0.0 0 0 101.82 49.41
  L 103.67 52.48
  A 0.38 0.38 0.0 0 0 104.33 52.48
  L 106.10 49.54
  Z
  M 192.28 49.51
  A 0.38 0.38 0.0 0 0 192.29 49.13
  L 190.51 45.87
  A 0.38 0.38 0.0 0 0 189.85 45.86
  L 187.92 49.05
  A 0.38 0.38 0.0 0 0 187.93 49.45
  L 189.83 52.43
  A 0.38 0.38 0.0 0 0 190.47 52.43
  L 192.28 49.51
  Z
  M 64.02 253.06
  L 64.01 258.31
  Q 64.01 258.84 63.65 259.23
  Q 62.93 260.03 61.87 260.37
  C 49.08 264.47 47.53 251.03 49.60 242.67
  C 51.42 235.30 62.36 234.63 63.87 242.48
  Q 63.93 242.82 64.28 242.82
  L 67.67 242.78
  Q 67.96 242.77 67.92 242.49
  C 67.23 237.29 63.24 233.85 58.09 233.66
  Q 46.06 233.21 44.99 246.02
  C 44.30 254.19 46.09 262.74 55.29 264.23
  C 59.01 264.84 65.34 263.95 67.70 260.46
  Q 68.01 260.00 68.00 259.45
  L 67.98 249.50
  A 0.48 0.48 0.0 0 0 67.50 249.02
  L 57.75 249.04
  Q 57.05 249.04 57.04 249.75
  L 57.03 251.80
  Q 57.03 252.32 57.55 252.32
  L 63.31 252.35
  Q 64.02 252.35 64.02 253.06
  Z
  M 163.75 252.92
  L 163.75 258.48
  A 1.13 1.13 0.0 0 1 163.34 259.35
  Q 162.25 260.28 160.96 260.59
  C 149.42 263.40 147.83 253.03 148.95 244.76
  Q 149.80 238.48 154.65 237.20
  C 158.67 236.14 162.80 238.03 163.57 242.43
  Q 163.64 242.83 164.04 242.82
  L 167.49 242.76
  Q 167.82 242.75 167.75 242.43
  Q 166.28 234.86 158.90 233.80
  Q 152.09 232.82 148.17 237.02
  C 143.97 241.53 143.85 250.89 145.61 256.20
  C 148.24 264.10 156.30 265.99 163.60 263.26
  Q 165.73 262.46 167.32 260.70
  Q 167.75 260.21 167.75 259.56
  L 167.75 249.52
  A 0.48 0.48 0.0 0 0 167.27 249.04
  L 157.27 249.03
  Q 156.82 249.03 156.82 249.48
  L 156.81 251.96
  Q 156.81 252.35 157.21 252.35
  L 163.17 252.34
  Q 163.75 252.34 163.75 252.92
  Z
  M 79.07 246.86
  A 0.42 0.42 0.0 0 1 78.65 246.44
  L 78.65 237.79
  A 0.42 0.42 0.0 0 1 79.07 237.37
  L 93.11 237.34
  A 0.42 0.42 0.0 0 0 93.53 236.92
  L 93.50 234.43
  A 0.42 0.42 0.0 0 0 93.08 234.01
  L 74.98 234.00
  A 0.42 0.42 0.0 0 0 74.56 234.42
  L 74.55 263.56
  A 0.42 0.42 0.0 0 0 74.97 263.98
  L 93.30 263.97
  A 0.42 0.42 0.0 0 0 93.72 263.55
  L 93.74 261.13
  A 0.42 0.42 0.0 0 0 93.32 260.71
  L 79.06 260.70
  A 0.42 0.42 0.0 0 1 78.64 260.28
  L 78.67 250.65
  A 0.42 0.42 0.0 0 1 79.09 250.23
  L 91.16 250.21
  A 0.42 0.42 0.0 0 0 91.58 249.79
  L 91.60 247.31
  A 0.42 0.42 0.0 0 0 91.18 246.89
  L 79.07 246.86
  Z
  M 102.76 241.34
  L 111.72 263.41
  Q 111.97 264.01 112.61 264.00
  L 114.29 263.97
  Q 115.10 263.95 115.40 263.20
  L 124.12 241.71
  Q 124.67 240.35 124.65 241.82
  L 124.36 263.57
  A 0.38 0.37 -90.0 0 0 124.73 263.95
  L 128.15 263.95
  Q 128.51 263.95 128.51 263.59
  L 128.50 234.63
  A 0.62 0.62 0.0 0 0 127.88 234.01
  L 123.78 234.01
  Q 123.26 234.01 123.06 234.49
  L 113.94 257.23
  Q 113.51 258.31 113.08 257.23
  L 104.03 234.61
  Q 103.78 233.99 103.12 234.00
  L 99.27 234.01
  Q 98.56 234.01 98.56 234.73
  L 98.56 263.28
  Q 98.56 264.00 99.28 263.99
  L 102.17 263.94
  Q 102.76 263.93 102.75 263.33
  L 102.37 241.43
  Q 102.35 240.34 102.76 241.34
  Z
  M 191.38 255.25
  C 191.34 262.96 177.80 263.58 177.76 254.43
  Q 177.71 244.43 177.75 234.33
  Q 177.75 234.03 177.45 234.03
  L 174.04 233.99
  Q 173.75 233.99 173.75 234.29
  Q 173.73 244.16 173.76 254.26
  C 173.79 261.70 179.76 265.35 186.65 264.23
  Q 195.50 262.78 195.50 253.69
  Q 195.51 244.72 195.51 234.38
  Q 195.51 234.04 195.17 234.04
  L 191.96 233.99
  Q 191.43 233.99 191.43 234.52
  Q 191.43 245.62 191.38 255.25
  Z
  M 206.33 251.82
  L 211.80 251.90
  Q 212.57 251.91 212.94 252.59
  L 218.81 263.56
  Q 219.05 264.01 219.57 264.00
  L 222.89 263.94
  Q 223.54 263.92 223.22 263.36
  L 216.68 251.60
  Q 216.37 251.05 216.94 250.79
  Q 221.55 248.60 221.91 244.18
  Q 222.62 235.39 214.24 234.32
  Q 210.02 233.78 202.16 234.05
  Q 201.53 234.07 201.53 234.70
  L 201.52 263.51
  Q 201.52 264.00 202.01 263.99
  L 204.98 263.95
  Q 205.66 263.94 205.66 263.27
  L 205.62 252.52
  Q 205.61 251.81 206.33 251.82
  Z
  M 244.73 253.83
  C 244.76 258.64 241.98 261.62 236.77 261.00
  Q 231.09 260.32 231.02 254.35
  Q 230.90 244.98 230.99 234.49
  Q 231.00 234.01 230.51 234.01
  L 227.50 234.01
  Q 226.98 234.01 226.98 234.54
  Q 227.05 243.20 226.96 253.36
  C 226.92 257.61 228.28 261.56 232.39 263.30
  C 239.44 266.27 248.62 263.32 248.70 254.56
  Q 248.79 244.94 248.72 234.44
  Q 248.72 234.01 248.29 234.01
  L 245.02 234.00
  Q 244.72 234.00 244.72 234.30
  Q 244.67 243.96 244.73 253.83
  Z
  M 74.75 280.59
  A 4.01 4.01 0.0 0 0 70.74 276.58
  L 70.02 276.58
  A 4.01 4.01 0.0 0 0 66.01 280.59
  L 66.01 282.21
  A 4.01 4.01 0.0 0 0 70.02 286.22
  L 70.74 286.22
  A 4.01 4.01 0.0 0 0 74.75 282.21
  L 74.75 280.59
  Z
  M 104.33 278.57
  C 105.64 276.70 107.63 277.93 108.57 279.45
  Q 109.07 280.26 109.38 279.35
  C 110.35 276.41 102.54 274.77 102.79 279.70
  A 1.90 1.89 6.6 0 0 104.18 281.44
  L 107.69 282.40
  A 1.16 1.15 31.7 0 1 108.16 284.37
  Q 106.93 285.48 105.09 284.94
  Q 104.48 284.77 104.19 284.20
  Q 103.95 283.73 103.64 283.28
  Q 103.47 283.04 103.18 282.99
  Q 102.79 282.92 102.51 283.40
  A 0.65 0.62 49.2 0 0 102.48 283.99
  C 104.09 287.57 110.69 286.97 109.60 282.42
  A 1.62 1.62 0.0 0 0 108.44 281.22
  L 104.95 280.27
  A 1.11 1.11 0.0 0 1 104.33 278.57
  Z
  M 160.8800 286.3400
  A 4.93 4.56 90.0 0 0 165.4400 281.4100
  A 4.93 4.56 90.0 0 0 160.8800 276.4800
  A 4.93 4.56 90.0 0 0 156.3200 281.4100
  A 4.93 4.56 90.0 0 0 160.8800 286.3400
  Z
  M 199.48 283.87
  A 2.35 2.34 -65.8 0 1 196.69 284.94
  C 193.71 283.94 193.90 278.01 197.24 277.76
  Q 199.16 277.62 200.10 279.47
  A 0.54 0.54 0.0 0 0 200.78 279.73
  L 201.02 279.64
  Q 201.31 279.53 201.21 279.23
  Q 200.22 276.31 197.21 276.59
  Q 192.94 276.99 193.24 281.95
  C 193.59 287.60 201.00 287.44 201.18 282.98
  Q 201.22 282.00 200.48 282.65
  Q 199.87 283.18 199.48 283.87
  Z
  M 59.37 280.33
  L 57.35 276.99
  A 0.54 0.54 0.0 0 0 56.86 276.74
  L 56.28 276.77
  Q 55.61 276.81 55.98 277.37
  C 57.60 279.81 59.66 281.99 59.01 285.12
  A 0.66 0.66 0.0 0 0 59.60 285.90
  L 59.99 285.93
  A 0.44 0.44 0.0 0 0 60.47 285.49
  C 60.50 284.07 60.26 282.57 61.09 281.32
  Q 62.51 279.20 63.65 277.28
  Q 63.90 276.87 63.43 276.79
  L 62.92 276.72
  Q 62.43 276.64 62.18 277.07
  L 60.27 280.32
  Q 59.83 281.08 59.37 280.33
  Z
  M 80.88 285.00
  Q 79.19 284.93 79.04 283.25
  Q 78.78 280.33 78.91 277.31
  A 0.51 0.51 0.0 0 0 78.44 276.78
  L 78.03 276.75
  A 0.40 0.39 -85.1 0 0 77.60 277.12
  C 77.45 279.80 76.43 286.01 80.73 286.22
  C 86.12 286.48 84.89 280.62 84.83 277.25
  Q 84.82 276.74 84.32 276.77
  L 83.94 276.80
  A 0.46 0.46 0.0 0 0 83.51 277.26
  L 83.49 282.81
  Q 83.49 285.11 81.19 285.01
  L 80.88 285.00
  Z
  M 89.96 282.12
  L 92.62 282.22
  Q 93.61 282.26 93.68 283.25
  L 93.81 285.23
  Q 93.85 285.80 94.41 285.92
  L 94.78 286.00
  Q 95.31 286.12 95.32 285.57
  Q 95.38 283.48 94.49 281.72
  Q 94.26 281.29 94.59 280.93
  C 96.24 279.08 94.69 276.85 92.47 276.81
  Q 90.53 276.77 88.64 276.73
  Q 87.90 276.71 87.90 277.45
  L 87.92 285.30
  A 0.63 0.63 0.0 0 0 88.57 285.93
  L 88.83 285.93
  Q 89.30 285.92 89.30 285.45
  L 89.28 282.77
  Q 89.28 282.09 89.96 282.12
  Z
  M 114.59 282.19
  C 116.95 282.51 119.90 282.05 119.53 278.84
  A 2.28 2.27 87.4 0 0 117.33 276.83
  L 113.34 276.73
  Q 112.63 276.71 112.63 277.42
  L 112.62 285.45
  Q 112.62 285.93 113.10 285.93
  L 113.54 285.93
  Q 114.00 285.94 114.00 285.47
  L 113.98 282.73
  Q 113.97 282.11 114.59 282.19
  Z
  M 124.27 283.40
  L 126.93 283.41
  A 0.80 0.78 78.9 0 1 127.66 283.91
  Q 127.82 284.31 127.82 284.75
  Q 127.81 285.35 128.31 285.70
  Q 128.62 285.93 129.02 285.94
  Q 129.81 285.96 129.54 285.21
  L 126.99 278.20
  Q 125.82 275.00 124.50 278.14
  Q 123.24 281.12 121.75 285.36
  A 0.41 0.41 0.0 0 0 122.02 285.89
  L 122.29 285.97
  A 0.63 0.63 0.0 0 0 123.02 285.66
  Q 123.45 284.87 123.59 283.98
  Q 123.68 283.39 124.27 283.40
  Z
  M 134.09 282.11
  L 137.00 282.22
  A 0.89 0.88 83.6 0 1 137.81 282.87
  Q 138.09 283.98 137.97 285.26
  Q 137.93 285.78 138.44 285.86
  L 139.05 285.95
  Q 139.52 286.02 139.55 285.53
  Q 139.66 283.28 138.71 281.59
  Q 138.53 281.27 138.79 281.02
  C 140.28 279.51 139.33 277.11 137.28 276.89
  Q 135.04 276.65 132.78 276.78
  Q 132.15 276.82 132.15 277.45
  L 132.10 285.33
  Q 132.10 285.81 132.58 285.85
  L 133.12 285.88
  A 0.38 0.38 0.0 0 0 133.53 285.50
  L 133.52 282.66
  Q 133.52 282.09 134.09 282.11
  Z
  M 144.02 280.41
  L 143.95 277.23
  A 0.45 0.44 -88.6 0 0 143.54 276.79
  L 143.16 276.77
  Q 142.63 276.73 142.63 277.26
  L 142.62 285.45
  A 0.49 0.48 3.3 0 0 143.05 285.93
  L 143.43 285.97
  Q 143.95 286.02 143.96 285.49
  C 143.99 284.31 143.65 282.90 144.72 282.06
  A 0.83 0.83 0.0 0 1 145.91 282.24
  L 148.22 285.61
  A 0.88 0.87 -19.6 0 0 149.03 285.99
  L 149.68 285.93
  Q 150.22 285.89 149.90 285.45
  L 146.71 281.03
  Q 146.33 280.51 146.80 280.06
  L 149.73 277.30
  Q 149.98 277.06 149.67 276.90
  L 149.29 276.69
  A 0.93 0.92 -53.8 0 0 148.21 276.86
  L 144.54 280.62
  A 0.30 0.30 0.0 0 1 144.02 280.41
  Z
  M 171.74 285.04
  Q 169.49 285.01 169.49 282.76
  L 169.48 277.23
  A 0.47 0.46 -1.8 0 0 168.98 276.77
  L 168.70 276.79
  Q 168.07 276.84 168.06 277.47
  C 168.01 279.89 167.19 285.63 170.68 286.13
  C 176.55 286.98 175.71 280.62 175.38 277.06
  Q 175.35 276.69 174.98 276.73
  L 174.59 276.77
  Q 174.02 276.83 174.02 277.41
  L 174.00 283.17
  A 1.49 1.47 -22.1 0 1 173.54 284.24
  Q 172.69 285.05 171.74 285.04
  Z
  M 180.72 282.08
  L 183.52 282.24
  Q 184.51 282.29 184.50 283.27
  L 184.48 285.24
  Q 184.47 285.75 184.98 285.85
  L 185.78 286.00
  Q 186.23 286.08 186.15 285.64
  L 185.40 281.57
  Q 185.31 281.09 185.55 280.66
  C 186.49 278.99 185.65 276.96 183.59 276.85
  Q 181.49 276.74 179.20 276.72
  Q 178.62 276.72 178.62 277.29
  L 178.61 285.45
  Q 178.61 285.92 179.08 285.93
  L 179.52 285.94
  Q 180.00 285.94 180.00 285.47
  L 179.99 282.78
  A 0.70 0.69 -88.5 0 1 180.72 282.08
  Z
  M 206.17 282.11
  L 208.73 282.20
  Q 209.97 282.24 209.99 283.48
  L 210.03 285.52
  A 0.29 0.28 -85.2 0 0 210.26 285.80
  L 211.21 285.97
  Q 211.43 286.01 211.45 285.79
  Q 211.75 283.64 210.79 281.76
  Q 210.63 281.44 210.82 281.14
  C 213.69 276.53 207.46 276.49 204.74 276.82
  Q 204.17 276.89 204.17 277.46
  L 204.09 285.29
  A 0.59 0.58 -89.5 0 0 204.66 285.88
  L 204.94 285.88
  Q 205.52 285.90 205.52 285.31
  L 205.52 282.74
  Q 205.52 282.09 206.17 282.11
  Z
  M 216.72 283.40
  L 219.14 283.40
  Q 220.08 283.40 220.04 284.34
  Q 219.99 285.80 221.30 285.92
  Q 221.91 285.98 221.74 285.39
  Q 220.61 281.43 219.08 277.96
  Q 217.85 275.18 216.76 278.01
  L 213.97 285.31
  A 0.42 0.42 0.0 0 0 214.24 285.86
  L 214.51 285.95
  A 0.73 0.73 0.0 0 0 215.42 285.46
  L 215.83 284.07
  Q 216.02 283.40 216.72 283.40
  Z
  M 226.00 280.67
  A 0.25 0.25 0.0 0 1 225.75 280.42
  L 225.75 278.25
  A 0.25 0.25 0.0 0 1 226.00 278.00
  L 230.53 277.91
  A 0.25 0.25 0.0 0 0 230.77 277.70
  L 230.87 277.06
  A 0.25 0.25 0.0 0 0 230.63 276.77
  L 224.67 276.76
  A 0.25 0.25 0.0 0 0 224.42 277.01
  L 224.42 285.61
  A 0.25 0.25 0.0 0 0 224.65 285.86
  L 225.45 285.91
  A 0.25 0.25 0.0 0 0 225.72 285.66
  L 225.75 282.08
  A 0.25 0.25 0.0 0 1 225.99 281.83
  L 229.99 281.73
  A 0.25 0.25 0.0 0 0 230.22 281.53
  L 230.33 281.04
  A 0.25 0.25 0.0 0 0 230.09 280.74
  L 226.00 280.67
  Z
  M 236.92 278.24
  A 0.26 0.26 0.0 0 1 237.17 277.98
  L 239.70 277.93
  A 0.26 0.26 0.0 0 0 239.96 277.67
  L 239.98 277.03
  A 0.26 0.26 0.0 0 0 239.72 276.76
  L 232.65 276.78
  A 0.26 0.26 0.0 0 0 232.41 277.14
  L 232.65 277.73
  A 0.26 0.26 0.0 0 0 232.88 277.89
  L 235.35 278.03
  A 0.26 0.26 0.0 0 1 235.60 278.29
  L 235.57 285.62
  A 0.26 0.26 0.0 0 0 235.82 285.88
  L 236.64 285.93
  A 0.26 0.26 0.0 0 0 236.91 285.67
  L 236.92 278.24
  Z"
/>
<path fill="#bd9851" d="
  M 192.38 92.36
  L 236.61 135.64
  Q 236.97 136.00 236.61 136.36
  L 147.65 224.81
  A 0.95 0.95 0.0 0 1 146.31 224.81
  L 57.59 136.47
  A 0.74 0.73 -44.7 0 1 57.60 135.43
  L 101.54 92.52
  A 2.08 2.07 -21.6 0 0 102.16 91.09
  C 102.20 87.80 102.56 84.51 101.52 81.31
  Q 96.14 64.64 90.60 46.92
  Q 90.09 45.29 91.21 46.57
  L 107.05 64.75
  A 0.35 0.35 0.0 0 0 107.65 64.62
  L 115.36 39.00
  Q 115.53 38.45 115.88 38.91
  L 130.25 57.83
  A 0.36 0.35 -50.2 0 0 130.85 57.77
  L 144.67 30.52
  A 1.56 1.53 45.4 0 0 144.67 29.13
  L 140.91 21.76
  Q 140.63 21.19 140.92 20.63
  L 146.80 9.28
  A 0.39 0.39 0.0 0 1 147.50 9.28
  L 153.19 20.74
  Q 153.43 21.23 153.19 21.71
  L 149.35 29.32
  A 1.11 1.10 44.7 0 0 149.36 30.32
  L 163.24 57.80
  A 0.41 0.41 0.0 0 0 163.93 57.87
  L 178.56 38.78
  A 0.22 0.22 0.0 0 1 178.95 38.85
  L 186.66 64.27
  A 0.46 0.46 0.0 0 0 187.44 64.44
  L 202.99 46.48
  Q 204.04 45.27 203.56 46.79
  Q 198.15 64.00 192.71 80.93
  C 191.57 84.48 191.92 87.70 191.90 91.21
  A 1.64 1.61 22.9 0 0 192.38 92.36
  Z
  M 149.09 21.50
  A 0.39 0.39 0.0 0 0 149.09 21.16
  L 147.37 17.56
  A 0.39 0.39 0.0 0 0 146.67 17.55
  L 144.80 21.22
  A 0.39 0.39 0.0 0 0 144.81 21.58
  L 146.72 25.06
  A 0.39 0.39 0.0 0 0 147.42 25.04
  L 149.09 21.50
  Z
  M 160.87 61.82
  A 0.41 0.41 0.0 0 0 160.91 61.39
  L 147.50 34.75
  A 0.41 0.41 0.0 0 0 146.77 34.75
  L 133.32 61.26
  A 0.41 0.41 0.0 0 0 133.35 61.69
  L 146.80 79.50
  A 0.41 0.41 0.0 0 0 147.46 79.50
  L 160.87 61.82
  Z
  M 128.61 62.06
  A 0.35 0.35 0.0 0 0 128.58 61.70
  L 117.44 47.06
  A 0.35 0.35 0.0 0 0 116.83 47.17
  L 110.39 68.38
  A 0.35 0.35 0.0 0 0 110.46 68.72
  L 119.52 79.15
  A 0.35 0.35 0.0 0 0 120.09 79.08
  L 128.61 62.06
  Z
  M 177.54 47.18
  A 0.35 0.35 0.0 0 0 176.93 47.08
  L 165.62 61.97
  A 0.35 0.35 0.0 0 0 165.59 62.35
  L 174.14 79.05
  A 0.35 0.35 0.0 0 0 174.72 79.12
  L 183.89 68.57
  A 0.35 0.35 0.0 0 0 183.96 68.23
  L 177.54 47.18
  Z
  M 190.56 75.46
  L 194.78 62.53
  A 0.27 0.27 0.0 0 0 194.32 62.27
  L 188.49 68.85
  Q 188.11 69.29 188.28 69.84
  L 190.02 75.45
  Q 190.28 76.30 190.56 75.46
  Z
  M 104.23 75.48
  C 104.75 73.62 105.68 71.54 105.87 69.62
  Q 105.91 69.18 105.63 68.86
  L 100.11 62.64
  Q 99.00 61.39 99.51 62.99
  L 103.49 75.50
  Q 103.88 76.73 104.23 75.48
  Z
  M 131.50 65.63
  A 0.35 0.35 0.0 0 0 130.90 65.69
  L 123.57 80.47
  A 0.35 0.35 0.0 0 0 123.88 80.98
  L 142.47 81.00
  A 0.35 0.35 0.0 0 0 142.75 80.43
  L 131.50 65.63
  Z
  M 170.27 80.99
  A 0.35 0.35 0.0 0 0 170.58 80.48
  L 163.15 65.99
  A 0.35 0.35 0.0 0 0 162.56 65.94
  L 151.45 80.39
  A 0.35 0.35 0.0 0 0 151.73 80.95
  L 170.27 80.99
  Z
  M 185.49 73.32
  A 0.37 0.37 0.0 0 0 184.86 73.18
  L 178.50 80.30
  A 0.37 0.37 0.0 0 0 178.78 80.92
  L 187.29 81.00
  A 0.37 0.37 0.0 0 0 187.65 80.53
  L 185.49 73.32
  Z
  M 115.35 80.99
  A 0.36 0.36 0.0 0 0 115.62 80.39
  L 109.40 73.27
  A 0.36 0.36 0.0 0 0 108.78 73.40
  L 106.60 80.51
  A 0.36 0.36 0.0 0 0 106.95 80.97
  L 115.35 80.99
  Z
  M 188.20 85.14
  A 0.40 0.40 0.0 0 0 187.80 84.74
  L 106.28 84.74
  A 0.40 0.40 0.0 0 0 105.88 85.14
  L 105.88 88.34
  A 0.40 0.40 0.0 0 0 106.28 88.74
  L 187.80 88.74
  A 0.40 0.40 0.0 0 0 188.20 88.34
  L 188.20 85.14
  Z
  M 103.97 97.53
  L 82.86 118.31
  Q 81.01 120.13 83.20 118.74
  L 116.68 97.39
  Q 117.68 96.76 116.50 96.75
  L 105.95 96.72
  Q 104.79 96.72 103.97 97.53
  Z
  M 158.39 97.30
  A 0.31 0.31 0.0 0 0 158.20 96.75
  L 135.59 96.73
  A 0.31 0.31 0.0 0 0 135.40 97.29
  L 146.75 106.04
  A 0.31 0.31 0.0 0 0 147.13 106.04
  L 158.39 97.30
  Z
  M 177.10 97.34
  L 211.18 118.95
  Q 213.30 120.30 211.51 118.54
  L 189.63 97.10
  Q 189.26 96.73 188.73 96.73
  L 177.28 96.72
  Q 176.12 96.72 177.10 97.34
  Z
  M 142.25 109.71
  A 0.31 0.31 0.0 0 0 142.25 109.22
  L 128.64 98.78
  A 0.31 0.31 0.0 0 0 128.16 98.93
  L 118.35 127.50
  A 0.31 0.31 0.0 0 0 118.83 127.85
  L 142.25 109.71
  Z
  M 165.77 98.89
  A 0.32 0.32 0.0 0 0 165.28 98.74
  L 151.63 109.20
  A 0.32 0.32 0.0 0 0 151.63 109.70
  L 175.09 127.88
  A 0.32 0.32 0.0 0 0 175.59 127.52
  L 165.77 98.89
  Z
  M 121.73 101.33
  A 0.33 0.33 0.0 0 0 121.25 100.94
  L 70.93 132.90
  A 0.33 0.33 0.0 0 0 71.11 133.51
  L 110.48 133.46
  A 0.33 0.33 0.0 0 0 110.80 133.24
  L 121.73 101.33
  Z
  M 222.98 133.50
  A 0.30 0.30 0.0 0 0 223.15 132.95
  L 172.69 100.96
  A 0.30 0.30 0.0 0 0 172.25 101.31
  L 183.16 133.26
  A 0.30 0.30 0.0 0 0 183.44 133.46
  L 222.98 133.50
  Z
  M 121.23 132.87
  A 0.34 0.34 0.0 0 0 121.44 133.48
  L 172.44 133.48
  A 0.34 0.34 0.0 0 0 172.65 132.87
  L 147.15 113.15
  A 0.34 0.34 0.0 0 0 146.73 113.15
  L 121.23 132.87
  Z
  M 120.18 191.09
  L 138.87 209.72
  Q 139.70 210.55 139.27 209.46
  L 111.17 139.34
  A 0.98 0.98 0.0 0 0 110.26 138.73
  L 68.04 138.74
  Q 67.35 138.74 67.84 139.22
  Q 93.11 164.41 119.51 190.60
  Q 119.75 190.83 120.04 190.99
  A 0.57 0.48 -4.7 0 1 120.18 191.09
  Z
  M 177.18 139.11
  A 0.32 0.32 0.0 0 0 176.88 138.67
  L 117.11 138.78
  A 0.32 0.32 0.0 0 0 116.81 139.22
  L 146.83 213.66
  A 0.32 0.32 0.0 0 0 147.42 213.66
  L 177.18 139.11
  Z
  M 182.88 139.31
  L 154.83 209.59
  Q 154.38 210.71 155.24 209.86
  L 226.05 139.36
  Q 226.68 138.73 225.80 138.73
  L 183.72 138.74
  Q 183.11 138.74 182.88 139.31
  Z"
/>
<path fill="#1a1a1a" d="
  M 149.09 21.50
  L 147.42 25.04
  A 0.39 0.39 0.0 0 1 146.72 25.06
  L 144.81 21.58
  A 0.39 0.39 0.0 0 1 144.80 21.22
  L 146.67 17.55
  A 0.39 0.39 0.0 0 1 147.37 17.56
  L 149.09 21.16
  A 0.39 0.39 0.0 0 1 149.09 21.50
  Z"
/>
<path fill="#1a1a1a" d="
  M 160.87 61.82
  L 147.46 79.50
  A 0.41 0.41 0.0 0 1 146.80 79.50
  L 133.35 61.69
  A 0.41 0.41 0.0 0 1 133.32 61.26
  L 146.77 34.75
  A 0.41 0.41 0.0 0 1 147.50 34.75
  L 160.91 61.39
  A 0.41 0.41 0.0 0 1 160.87 61.82
  Z"
/>
<path fill="#bd9851" d="
  M 131.50 40.31
  L 129.75 43.30
  A 0.38 0.38 0.0 0 1 129.10 43.30
  L 127.31 40.31
  A 0.38 0.38 0.0 0 1 127.31 39.93
  L 129.16 36.74
  A 0.38 0.38 0.0 0 1 129.82 36.76
  L 131.51 39.94
  A 0.38 0.38 0.0 0 1 131.50 40.31
  Z"
/>
<path fill="#bd9851" d="
  M 162.58 40.05
  L 164.38 36.68
  A 0.30 0.30 0.0 0 1 164.90 36.67
  L 166.83 39.91
  A 0.30 0.30 0.0 0 1 166.83 40.21
  L 164.94 43.36
  A 0.30 0.30 0.0 0 1 164.43 43.36
  L 162.59 40.35
  A 0.30 0.30 0.0 0 1 162.58 40.05
  Z"
/>
<path fill="#bd9851" d="
  M 106.10 49.54
  L 104.33 52.48
  A 0.38 0.38 0.0 0 1 103.67 52.48
  L 101.82 49.41
  A 0.38 0.38 0.0 0 1 101.82 49.01
  L 103.71 45.87
  A 0.38 0.38 0.0 0 1 104.37 45.89
  L 106.11 49.17
  A 0.38 0.38 0.0 0 1 106.10 49.54
  Z"
/>
<path fill="#bd9851" d="
  M 192.28 49.51
  L 190.47 52.43
  A 0.38 0.38 0.0 0 1 189.83 52.43
  L 187.93 49.45
  A 0.38 0.38 0.0 0 1 187.92 49.05
  L 189.85 45.86
  A 0.38 0.38 0.0 0 1 190.51 45.87
  L 192.29 49.13
  A 0.38 0.38 0.0 0 1 192.28 49.51
  Z"
/>
<path fill="#1a1a1a" d="
  M 128.61 62.06
  L 120.09 79.08
  A 0.35 0.35 0.0 0 1 119.52 79.15
  L 110.46 68.72
  A 0.35 0.35 0.0 0 1 110.39 68.38
  L 116.83 47.17
  A 0.35 0.35 0.0 0 1 117.44 47.06
  L 128.58 61.70
  A 0.35 0.35 0.0 0 1 128.61 62.06
  Z"
/>
<path fill="#1a1a1a" d="
  M 177.54 47.18
  L 183.96 68.23
  A 0.35 0.35 0.0 0 1 183.89 68.57
  L 174.72 79.12
  A 0.35 0.35 0.0 0 1 174.14 79.05
  L 165.59 62.35
  A 0.35 0.35 0.0 0 1 165.62 61.97
  L 176.93 47.08
  A 0.35 0.35 0.0 0 1 177.54 47.18
  Z"
/>
<path fill="#1a1a1a" d="
  M 194.78 62.53
  L 190.56 75.46
  Q 190.28 76.30 190.02 75.45
  L 188.28 69.84
  Q 188.11 69.29 188.49 68.85
  L 194.32 62.27
  A 0.27 0.27 0.0 0 1 194.78 62.53
  Z"
/>
<path fill="#1a1a1a" d="
  M 105.87 69.62
  C 105.68 71.54 104.75 73.62 104.23 75.48
  Q 103.88 76.73 103.49 75.50
  L 99.51 62.99
  Q 99.00 61.39 100.11 62.64
  L 105.63 68.86
  Q 105.91 69.18 105.87 69.62
  Z"
/>
<path fill="#1a1a1a" d="
  M 131.50 65.63
  L 142.75 80.43
  A 0.35 0.35 0.0 0 1 142.47 81.00
  L 123.88 80.98
  A 0.35 0.35 0.0 0 1 123.57 80.47
  L 130.90 65.69
  A 0.35 0.35 0.0 0 1 131.50 65.63
  Z"
/>
<path fill="#1a1a1a" d="
  M 170.27 80.99
  L 151.73 80.95
  A 0.35 0.35 0.0 0 1 151.45 80.39
  L 162.56 65.94
  A 0.35 0.35 0.0 0 1 163.15 65.99
  L 170.58 80.48
  A 0.35 0.35 0.0 0 1 170.27 80.99
  Z"
/>
<path fill="#1a1a1a" d="
  M 185.49 73.32
  L 187.65 80.53
  A 0.37 0.37 0.0 0 1 187.29 81.00
  L 178.78 80.92
  A 0.37 0.37 0.0 0 1 178.50 80.30
  L 184.86 73.18
  A 0.37 0.37 0.0 0 1 185.49 73.32
  Z"
/>
<path fill="#1a1a1a" d="
  M 115.35 80.99
  L 106.95 80.97
  A 0.36 0.36 0.0 0 1 106.60 80.51
  L 108.78 73.40
  A 0.36 0.36 0.0 0 1 109.40 73.27
  L 115.62 80.39
  A 0.36 0.36 0.0 0 1 115.35 80.99
  Z"
/>
<rect fill="#1a1a1a" x="105.88" y="84.74" width="82.32" height="4.00" rx="0.40"/>
<path fill="#1a1a1a" d="
  M 103.97 97.53
  Q 104.79 96.72 105.95 96.72
  L 116.50 96.75
  Q 117.68 96.76 116.68 97.39
  L 83.20 118.74
  Q 81.01 120.13 82.86 118.31
  L 103.97 97.53
  Z"
/>
<path fill="#1a1a1a" d="
  M 158.39 97.30
  L 147.13 106.04
  A 0.31 0.31 0.0 0 1 146.75 106.04
  L 135.40 97.29
  A 0.31 0.31 0.0 0 1 135.59 96.73
  L 158.20 96.75
  A 0.31 0.31 0.0 0 1 158.39 97.30
  Z"
/>
<path fill="#1a1a1a" d="
  M 177.10 97.34
  Q 176.12 96.72 177.28 96.72
  L 188.73 96.73
  Q 189.26 96.73 189.63 97.10
  L 211.51 118.54
  Q 213.30 120.30 211.18 118.95
  L 177.10 97.34
  Z"
/>
<path fill="#1a1a1a" d="
  M 142.25 109.71
  L 118.83 127.85
  A 0.31 0.31 0.0 0 1 118.35 127.50
  L 128.16 98.93
  A 0.31 0.31 0.0 0 1 128.64 98.78
  L 142.25 109.22
  A 0.31 0.31 0.0 0 1 142.25 109.71
  Z"
/>
<path fill="#1a1a1a" d="
  M 165.77 98.89
  L 175.59 127.52
  A 0.32 0.32 0.0 0 1 175.09 127.88
  L 151.63 109.70
  A 0.32 0.32 0.0 0 1 151.63 109.20
  L 165.28 98.74
  A 0.32 0.32 0.0 0 1 165.77 98.89
  Z"
/>
<path fill="#1a1a1a" d="
  M 121.73 101.33
  L 110.80 133.24
  A 0.33 0.33 0.0 0 1 110.48 133.46
  L 71.11 133.51
  A 0.33 0.33 0.0 0 1 70.93 132.90
  L 121.25 100.94
  A 0.33 0.33 0.0 0 1 121.73 101.33
  Z"
/>
<path fill="#1a1a1a" d="
  M 222.98 133.50
  L 183.44 133.46
  A 0.30 0.30 0.0 0 1 183.16 133.26
  L 172.25 101.31
  A 0.30 0.30 0.0 0 1 172.69 100.96
  L 223.15 132.95
  A 0.30 0.30 0.0 0 1 222.98 133.50
  Z"
/>
<path fill="#1a1a1a" d="
  M 121.23 132.87
  L 146.73 113.15
  A 0.34 0.34 0.0 0 1 147.15 113.15
  L 172.65 132.87
  A 0.34 0.34 0.0 0 1 172.44 133.48
  L 121.44 133.48
  A 0.34 0.34 0.0 0 1 121.23 132.87
  Z"
/>
<path fill="#1a1a1a" d="
  M 120.04 190.99
  Q 119.75 190.83 119.51 190.60
  Q 93.11 164.41 67.84 139.22
  Q 67.35 138.74 68.04 138.74
  L 110.26 138.73
  A 0.98 0.98 0.0 0 1 111.17 139.34
  L 139.27 209.46
  Q 139.70 210.55 138.87 209.72
  L 120.18 191.09
  A 0.57 0.48 -4.7 0 0 120.04 190.99
  Z"
/>
<path fill="#1a1a1a" d="
  M 177.18 139.11
  L 147.42 213.66
  A 0.32 0.32 0.0 0 1 146.83 213.66
  L 116.81 139.22
  A 0.32 0.32 0.0 0 1 117.11 138.78
  L 176.88 138.67
  A 0.32 0.32 0.0 0 1 177.18 139.11
  Z"
/>
<path fill="#1a1a1a" d="
  M 154.83 209.59
  L 182.88 139.31
  Q 183.11 138.74 183.72 138.74
  L 225.80 138.73
  Q 226.68 138.73 226.05 139.36
  L 155.24 209.86
  Q 154.38 210.71 154.83 209.59
  Z"
/>
<path fill="#fefefe" d="
  M 63.31 252.35
  L 57.55 252.32
  Q 57.03 252.32 57.03 251.80
  L 57.04 249.75
  Q 57.05 249.04 57.75 249.04
  L 67.50 249.02
  A 0.48 0.48 0.0 0 1 67.98 249.50
  L 68.00 259.45
  Q 68.01 260.00 67.70 260.46
  C 65.34 263.95 59.01 264.84 55.29 264.23
  C 46.09 262.74 44.30 254.19 44.99 246.02
  Q 46.06 233.21 58.09 233.66
  C 63.24 233.85 67.23 237.29 67.92 242.49
  Q 67.96 242.77 67.67 242.78
  L 64.28 242.82
  Q 63.93 242.82 63.87 242.48
  C 62.36 234.63 51.42 235.30 49.60 242.67
  C 47.53 251.03 49.08 264.47 61.87 260.37
  Q 62.93 260.03 63.65 259.23
  Q 64.01 258.84 64.01 258.31
  L 64.02 253.06
  Q 64.02 252.35 63.31 252.35
  Z"
/>
<path fill="#fefefe" d="
  M 163.17 252.34
  L 157.21 252.35
  Q 156.81 252.35 156.81 251.96
  L 156.82 249.48
  Q 156.82 249.03 157.27 249.03
  L 167.27 249.04
  A 0.48 0.48 0.0 0 1 167.75 249.52
  L 167.75 259.56
  Q 167.75 260.21 167.32 260.70
  Q 165.73 262.46 163.60 263.26
  C 156.30 265.99 148.24 264.10 145.61 256.20
  C 143.85 250.89 143.97 241.53 148.17 237.02
  Q 152.09 232.82 158.90 233.80
  Q 166.28 234.86 167.75 242.43
  Q 167.82 242.75 167.49 242.76
  L 164.04 242.82
  Q 163.64 242.83 163.57 242.43
  C 162.80 238.03 158.67 236.14 154.65 237.20
  Q 149.80 238.48 148.95 244.76
  C 147.83 253.03 149.42 263.40 160.96 260.59
  Q 162.25 260.28 163.34 259.35
  A 1.13 1.13 0.0 0 0 163.75 258.48
  L 163.75 252.92
  Q 163.75 252.34 163.17 252.34
  Z"
/>
<path fill="#fefefe" d="
  M 79.07 246.86
  L 91.18 246.89
  A 0.42 0.42 0.0 0 1 91.60 247.31
  L 91.58 249.79
  A 0.42 0.42 0.0 0 1 91.16 250.21
  L 79.09 250.23
  A 0.42 0.42 0.0 0 0 78.67 250.65
  L 78.64 260.28
  A 0.42 0.42 0.0 0 0 79.06 260.70
  L 93.32 260.71
  A 0.42 0.42 0.0 0 1 93.74 261.13
  L 93.72 263.55
  A 0.42 0.42 0.0 0 1 93.30 263.97
  L 74.97 263.98
  A 0.42 0.42 0.0 0 1 74.55 263.56
  L 74.56 234.42
  A 0.42 0.42 0.0 0 1 74.98 234.00
  L 93.08 234.01
  A 0.42 0.42 0.0 0 1 93.50 234.43
  L 93.53 236.92
  A 0.42 0.42 0.0 0 1 93.11 237.34
  L 79.07 237.37
  A 0.42 0.42 0.0 0 0 78.65 237.79
  L 78.65 246.44
  A 0.42 0.42 0.0 0 0 79.07 246.86
  Z"
/>
<path fill="#fefefe" d="
  M 102.37 241.43
  L 102.75 263.33
  Q 102.76 263.93 102.17 263.94
  L 99.28 263.99
  Q 98.56 264.00 98.56 263.28
  L 98.56 234.73
  Q 98.56 234.01 99.27 234.01
  L 103.12 234.00
  Q 103.78 233.99 104.03 234.61
  L 113.08 257.23
  Q 113.51 258.31 113.94 257.23
  L 123.06 234.49
  Q 123.26 234.01 123.78 234.01
  L 127.88 234.01
  A 0.62 0.62 0.0 0 1 128.50 234.63
  L 128.51 263.59
  Q 128.51 263.95 128.15 263.95
  L 124.73 263.95
  A 0.38 0.37 90.0 0 1 124.36 263.57
  L 124.65 241.82
  Q 124.67 240.35 124.12 241.71
  L 115.40 263.20
  Q 115.10 263.95 114.29 263.97
  L 112.61 264.00
  Q 111.97 264.01 111.72 263.41
  L 102.76 241.34
  Q 102.35 240.34 102.37 241.43
  Z"
/>
<path fill="#fefefe" d="
  M 177.76 254.43
  C 177.80 263.58 191.34 262.96 191.38 255.25
  Q 191.43 245.62 191.43 234.52
  Q 191.43 233.99 191.96 233.99
  L 195.17 234.04
  Q 195.51 234.04 195.51 234.38
  Q 195.51 244.72 195.50 253.69
  Q 195.50 262.78 186.65 264.23
  C 179.76 265.35 173.79 261.70 173.76 254.26
  Q 173.73 244.16 173.75 234.29
  Q 173.75 233.99 174.04 233.99
  L 177.45 234.03
  Q 177.75 234.03 177.75 234.33
  Q 177.71 244.43 177.76 254.43
  Z"
/>
<path fill="#fefefe" d="
  M 205.62 252.52
  L 205.66 263.27
  Q 205.66 263.94 204.98 263.95
  L 202.01 263.99
  Q 201.52 264.00 201.52 263.51
  L 201.53 234.70
  Q 201.53 234.07 202.16 234.05
  Q 210.02 233.78 214.24 234.32
  Q 222.62 235.39 221.91 244.18
  Q 221.55 248.60 216.94 250.79
  Q 216.37 251.05 216.68 251.60
  L 223.22 263.36
  Q 223.54 263.92 222.89 263.94
  L 219.57 264.00
  Q 219.05 264.01 218.81 263.56
  L 212.94 252.59
  Q 212.57 251.91 211.80 251.90
  L 206.33 251.82
  Q 205.61 251.81 205.62 252.52
  Z
  M 205.57 237.99
  L 205.59 247.93
  A 0.61 0.61 0.0 0 0 206.20 248.54
  L 212.35 248.53
  A 5.66 5.37 -0.1 0 0 218.00 243.15
  L 218.00 242.73
  A 5.66 5.37 -0.1 0 0 212.33 237.37
  L 206.18 237.38
  A 0.61 0.61 0.0 0 0 205.57 237.99
  Z"
/>
<path fill="#fefefe" d="
  M 236.77 261.00
  C 241.98 261.62 244.76 258.64 244.73 253.83
  Q 244.67 243.96 244.72 234.30
  Q 244.72 234.00 245.02 234.00
  L 248.29 234.01
  Q 248.72 234.01 248.72 234.44
  Q 248.79 244.94 248.70 254.56
  C 248.62 263.32 239.44 266.27 232.39 263.30
  C 228.28 261.56 226.92 257.61 226.96 253.36
  Q 227.05 243.20 226.98 234.54
  Q 226.98 234.01 227.50 234.01
  L 230.51 234.01
  Q 231.00 234.01 230.99 234.49
  Q 230.90 244.98 231.02 254.35
  Q 231.09 260.32 236.77 261.00
  Z"
/>
<path fill="#1a1a1a" d="
  M 205.57 237.99
  A 0.61 0.61 0.0 0 1 206.18 237.38
  L 212.33 237.37
  A 5.66 5.37 -0.1 0 1 218.00 242.73
  L 218.00 243.15
  A 5.66 5.37 -0.1 0 1 212.35 248.53
  L 206.20 248.54
  A 0.61 0.61 0.0 0 1 205.59 247.93
  L 205.57 237.99
  Z"
/>
<path fill="#fefefe" d="
  M 74.75 282.21
  A 4.01 4.01 0.0 0 1 70.74 286.22
  L 70.02 286.22
  A 4.01 4.01 0.0 0 1 66.01 282.21
  L 66.01 280.59
  A 4.01 4.01 0.0 0 1 70.02 276.58
  L 70.74 276.58
  A 4.01 4.01 0.0 0 1 74.75 280.59
  L 74.75 282.21
  Z
  M 70.3411 285.0898
  A 3.71 3.10 90.6 0 0 73.4798 281.4125
  A 3.71 3.10 90.6 0 0 70.4189 277.6702
  A 3.71 3.10 90.6 0 0 67.2802 281.3475
  A 3.71 3.10 90.6 0 0 70.3411 285.0898
  Z"
/>
<path fill="#fefefe" d="
  M 104.33 278.57
  A 1.11 1.11 0.0 0 0 104.95 280.27
  L 108.44 281.22
  A 1.62 1.62 0.0 0 1 109.60 282.42
  C 110.69 286.97 104.09 287.57 102.48 283.99
  A 0.65 0.62 49.2 0 1 102.51 283.40
  Q 102.79 282.92 103.18 282.99
  Q 103.47 283.04 103.64 283.28
  Q 103.95 283.73 104.19 284.20
  Q 104.48 284.77 105.09 284.94
  Q 106.93 285.48 108.16 284.37
  A 1.16 1.15 31.7 0 0 107.69 282.40
  L 104.18 281.44
  A 1.90 1.89 6.6 0 1 102.79 279.70
  C 102.54 274.77 110.35 276.41 109.38 279.35
  Q 109.07 280.26 108.57 279.45
  C 107.63 277.93 105.64 276.70 104.33 278.57
  Z"
/>
<path fill="#fefefe" d="
  M 160.8800 286.3400
  A 4.93 4.56 90.0 0 1 156.3200 281.4100
  A 4.93 4.56 90.0 0 1 160.8800 276.4800
  A 4.93 4.56 90.0 0 1 165.4400 281.4100
  A 4.93 4.56 90.0 0 1 160.8800 286.3400
  Z
  M 160.8119 285.0895
  A 3.70 3.13 90.9 0 0 163.9996 281.4392
  A 3.70 3.13 90.9 0 0 160.9281 277.6905
  A 3.70 3.13 90.9 0 0 157.7404 281.3408
  A 3.70 3.13 90.9 0 0 160.8119 285.0895
  Z"
/>
<path fill="#fefefe" d="
  M 199.48 283.87
  Q 199.87 283.18 200.48 282.65
  Q 201.22 282.00 201.18 282.98
  C 201.00 287.44 193.59 287.60 193.24 281.95
  Q 192.94 276.99 197.21 276.59
  Q 200.22 276.31 201.21 279.23
  Q 201.31 279.53 201.02 279.64
  L 200.78 279.73
  A 0.54 0.54 0.0 0 1 200.10 279.47
  Q 199.16 277.62 197.24 277.76
  C 193.90 278.01 193.71 283.94 196.69 284.94
  A 2.35 2.34 -65.8 0 0 199.48 283.87
  Z"
/>
<path fill="#fefefe" d="
  M 60.27 280.32
  L 62.18 277.07
  Q 62.43 276.64 62.92 276.72
  L 63.43 276.79
  Q 63.90 276.87 63.65 277.28
  Q 62.51 279.20 61.09 281.32
  C 60.26 282.57 60.50 284.07 60.47 285.49
  A 0.44 0.44 0.0 0 1 59.99 285.93
  L 59.60 285.90
  A 0.66 0.66 0.0 0 1 59.01 285.12
  C 59.66 281.99 57.60 279.81 55.98 277.37
  Q 55.61 276.81 56.28 276.77
  L 56.86 276.74
  A 0.54 0.54 0.0 0 1 57.35 276.99
  L 59.37 280.33
  Q 59.83 281.08 60.27 280.32
  Z"
/>
<path fill="#fefefe" d="
  M 80.88 285.00
  L 81.19 285.01
  Q 83.49 285.11 83.49 282.81
  L 83.51 277.26
  A 0.46 0.46 0.0 0 1 83.94 276.80
  L 84.32 276.77
  Q 84.82 276.74 84.83 277.25
  C 84.89 280.62 86.12 286.48 80.73 286.22
  C 76.43 286.01 77.45 279.80 77.60 277.12
  A 0.40 0.39 -85.1 0 1 78.03 276.75
  L 78.44 276.78
  A 0.51 0.51 0.0 0 1 78.91 277.31
  Q 78.78 280.33 79.04 283.25
  Q 79.19 284.93 80.88 285.00
  Z"
/>
<path fill="#fefefe" d="
  M 89.28 282.77
  L 89.30 285.45
  Q 89.30 285.92 88.83 285.93
  L 88.57 285.93
  A 0.63 0.63 0.0 0 1 87.92 285.30
  L 87.90 277.45
  Q 87.90 276.71 88.64 276.73
  Q 90.53 276.77 92.47 276.81
  C 94.69 276.85 96.24 279.08 94.59 280.93
  Q 94.26 281.29 94.49 281.72
  Q 95.38 283.48 95.32 285.57
  Q 95.31 286.12 94.78 286.00
  L 94.41 285.92
  Q 93.85 285.80 93.81 285.23
  L 93.68 283.25
  Q 93.61 282.26 92.62 282.22
  L 89.96 282.12
  Q 89.28 282.09 89.28 282.77
  Z
  M 93.6535 278.7460
  A 0.85 0.85 0.0 0 0 92.7829 277.9170
  L 90.0438 277.9839
  A 0.85 0.85 0.0 0 0 89.2148 278.8544
  L 89.2465 280.1540
  A 0.85 0.85 0.0 0 0 90.1171 280.9830
  L 92.8562 280.9161
  A 0.85 0.85 0.0 0 0 93.6852 280.0456
  L 93.6535 278.7460
  Z"
/>
<path fill="#fefefe" d="
  M 113.98 282.73
  L 114.00 285.47
  Q 114.00 285.94 113.54 285.93
  L 113.10 285.93
  Q 112.62 285.93 112.62 285.45
  L 112.63 277.42
  Q 112.63 276.71 113.34 276.73
  L 117.33 276.83
  A 2.28 2.27 87.4 0 1 119.53 278.84
  C 119.90 282.05 116.95 282.51 114.59 282.19
  Q 113.97 282.11 113.98 282.73
  Z
  M 113.97 278.28
  L 114.00 280.72
  A 0.31 0.31 0.0 0 0 114.31 281.02
  L 116.39 281.00
  A 1.77 1.32 -0.7 0 0 118.14 279.65
  L 118.14 279.23
  A 1.77 1.32 -0.7 0 0 116.35 277.94
  L 114.27 277.96
  A 0.31 0.31 0.0 0 0 113.97 278.28
  Z"
/>
<path fill="#fefefe" d="
  M 123.59 283.98
  Q 123.45 284.87 123.02 285.66
  A 0.63 0.63 0.0 0 1 122.29 285.97
  L 122.02 285.89
  A 0.41 0.41 0.0 0 1 121.75 285.36
  Q 123.24 281.12 124.50 278.14
  Q 125.82 275.00 126.99 278.20
  L 129.54 285.21
  Q 129.81 285.96 129.02 285.94
  Q 128.62 285.93 128.31 285.70
  Q 127.81 285.35 127.82 284.75
  Q 127.82 284.31 127.66 283.91
  A 0.80 0.78 78.9 0 0 126.93 283.41
  L 124.27 283.40
  Q 123.68 283.39 123.59 283.98
  Z
  M 125.99 279.20
  A 0.32 0.32 0.0 0 0 125.39 279.18
  L 124.43 281.76
  A 0.32 0.32 0.0 0 0 124.73 282.19
  L 126.51 282.24
  A 0.32 0.32 0.0 0 0 126.82 281.82
  L 125.99 279.20
  Z"
/>
<path fill="#fefefe" d="
  M 133.52 282.66
  L 133.53 285.50
  A 0.38 0.38 0.0 0 1 133.12 285.88
  L 132.58 285.85
  Q 132.10 285.81 132.10 285.33
  L 132.15 277.45
  Q 132.15 276.82 132.78 276.78
  Q 135.04 276.65 137.28 276.89
  C 139.33 277.11 140.28 279.51 138.79 281.02
  Q 138.53 281.27 138.71 281.59
  Q 139.66 283.28 139.55 285.53
  Q 139.52 286.02 139.05 285.95
  L 138.44 285.86
  Q 137.93 285.78 137.97 285.26
  Q 138.09 283.98 137.81 282.87
  A 0.89 0.88 83.6 0 0 137.00 282.22
  L 134.09 282.11
  Q 133.52 282.09 133.52 282.66
  Z
  M 137.9332 278.7355
  A 0.83 0.83 0.0 0 0 137.0832 277.9260
  L 134.2640 277.9949
  A 0.83 0.83 0.0 0 0 133.4545 278.8449
  L 133.4868 280.1645
  A 0.83 0.83 0.0 0 0 134.3368 280.9740
  L 137.1560 280.9051
  A 0.83 0.83 0.0 0 0 137.9655 280.0551
  L 137.9332 278.7355
  Z"
/>
<path fill="#fefefe" d="
  M 144.02 280.41
  A 0.30 0.30 0.0 0 0 144.54 280.62
  L 148.21 276.86
  A 0.93 0.92 -53.8 0 1 149.29 276.69
  L 149.67 276.90
  Q 149.98 277.06 149.73 277.30
  L 146.80 280.06
  Q 146.33 280.51 146.71 281.03
  L 149.90 285.45
  Q 150.22 285.89 149.68 285.93
  L 149.03 285.99
  A 0.88 0.87 -19.6 0 1 148.22 285.61
  L 145.91 282.24
  A 0.83 0.83 0.0 0 0 144.72 282.06
  C 143.65 282.90 143.99 284.31 143.96 285.49
  Q 143.95 286.02 143.43 285.97
  L 143.05 285.93
  A 0.49 0.48 3.3 0 1 142.62 285.45
  L 142.63 277.26
  Q 142.63 276.73 143.16 276.77
  L 143.54 276.79
  A 0.45 0.44 -88.6 0 1 143.95 277.23
  L 144.02 280.41
  Z"
/>
<path fill="#fefefe" d="
  M 171.74 285.04
  Q 172.69 285.05 173.54 284.24
  A 1.49 1.47 -22.1 0 0 174.00 283.17
  L 174.02 277.41
  Q 174.02 276.83 174.59 276.77
  L 174.98 276.73
  Q 175.35 276.69 175.38 277.06
  C 175.71 280.62 176.55 286.98 170.68 286.13
  C 167.19 285.63 168.01 279.89 168.06 277.47
  Q 168.07 276.84 168.70 276.79
  L 168.98 276.77
  A 0.47 0.46 -1.8 0 1 169.48 277.23
  L 169.49 282.76
  Q 169.49 285.01 171.74 285.04
  Z"
/>
<path fill="#fefefe" d="
  M 179.99 282.78
  L 180.00 285.47
  Q 180.00 285.94 179.52 285.94
  L 179.08 285.93
  Q 178.61 285.92 178.61 285.45
  L 178.62 277.29
  Q 178.62 276.72 179.20 276.72
  Q 181.49 276.74 183.59 276.85
  C 185.65 276.96 186.49 278.99 185.55 280.66
  Q 185.31 281.09 185.40 281.57
  L 186.15 285.64
  Q 186.23 286.08 185.78 286.00
  L 184.98 285.85
  Q 184.47 285.75 184.48 285.24
  L 184.50 283.27
  Q 184.51 282.29 183.52 282.24
  L 180.72 282.08
  A 0.70 0.69 -88.5 0 0 179.99 282.78
  Z
  M 179.94 278.38
  L 179.98 280.60
  A 0.44 0.44 0.0 0 0 180.42 281.03
  L 182.69 280.99
  A 1.85 1.28 -0.9 0 0 184.52 279.68
  L 184.52 279.14
  A 1.85 1.28 -0.9 0 0 182.65 277.89
  L 180.38 277.93
  A 0.44 0.44 0.0 0 0 179.94 278.38
  Z"
/>
<path fill="#fefefe" d="
  M 205.52 282.74
  L 205.52 285.31
  Q 205.52 285.90 204.94 285.88
  L 204.66 285.88
  A 0.59 0.58 -89.5 0 1 204.09 285.29
  L 204.17 277.46
  Q 204.17 276.89 204.74 276.82
  C 207.46 276.49 213.69 276.53 210.82 281.14
  Q 210.63 281.44 210.79 281.76
  Q 211.75 283.64 211.45 285.79
  Q 211.43 286.01 211.21 285.97
  L 210.26 285.80
  A 0.29 0.28 -85.2 0 1 210.03 285.52
  L 209.99 283.48
  Q 209.97 282.24 208.73 282.20
  L 206.17 282.11
  Q 205.52 282.09 205.52 282.74
  Z
  M 205.49 278.43
  L 205.56 280.60
  A 0.43 0.43 0.0 0 0 206.00 281.02
  L 208.47 280.94
  A 1.64 1.37 -1.9 0 0 210.06 279.51
  L 210.05 279.21
  A 1.64 1.37 -1.9 0 0 208.37 277.90
  L 205.90 277.98
  A 0.43 0.43 0.0 0 0 205.49 278.43
  Z"
/>
<path fill="#fefefe" d="
  M 215.83 284.07
  L 215.42 285.46
  A 0.73 0.73 0.0 0 1 214.51 285.95
  L 214.24 285.86
  A 0.42 0.42 0.0 0 1 213.97 285.31
  L 216.76 278.01
  Q 217.85 275.18 219.08 277.96
  Q 220.61 281.43 221.74 285.39
  Q 221.91 285.98 221.30 285.92
  Q 219.99 285.80 220.04 284.34
  Q 220.08 283.40 219.14 283.40
  L 216.72 283.40
  Q 216.02 283.40 215.83 284.07
  Z
  M 218.77 282.21
  A 0.32 0.32 0.0 0 0 219.07 281.80
  L 218.26 279.18
  A 0.32 0.32 0.0 0 0 217.65 279.16
  L 216.70 281.78
  A 0.32 0.32 0.0 0 0 217.00 282.21
  L 218.77 282.21
  Z"
/>
<path fill="#fefefe" d="
  M 226.00 280.67
  L 230.09 280.74
  A 0.25 0.25 0.0 0 1 230.33 281.04
  L 230.22 281.53
  A 0.25 0.25 0.0 0 1 229.99 281.73
  L 225.99 281.83
  A 0.25 0.25 0.0 0 0 225.75 282.08
  L 225.72 285.66
  A 0.25 0.25 0.0 0 1 225.45 285.91
  L 224.65 285.86
  A 0.25 0.25 0.0 0 1 224.42 285.61
  L 224.42 277.01
  A 0.25 0.25 0.0 0 1 224.67 276.76
  L 230.63 276.77
  A 0.25 0.25 0.0 0 1 230.87 277.06
  L 230.77 277.70
  A 0.25 0.25 0.0 0 1 230.53 277.91
  L 226.00 278.00
  A 0.25 0.25 0.0 0 0 225.75 278.25
  L 225.75 280.42
  A 0.25 0.25 0.0 0 0 226.00 280.67
  Z"
/>
<path fill="#fefefe" d="
  M 236.92 278.24
  L 236.91 285.67
  A 0.26 0.26 0.0 0 1 236.64 285.93
  L 235.82 285.88
  A 0.26 0.26 0.0 0 1 235.57 285.62
  L 235.60 278.29
  A 0.26 0.26 0.0 0 0 235.35 278.03
  L 232.88 277.89
  A 0.26 0.26 0.0 0 1 232.65 277.73
  L 232.41 277.14
  A 0.26 0.26 0.0 0 1 232.65 276.78
  L 239.72 276.76
  A 0.26 0.26 0.0 0 1 239.98 277.03
  L 239.96 277.67
  A 0.26 0.26 0.0 0 1 239.70 277.93
  L 237.17 277.98
  A 0.26 0.26 0.0 0 0 236.92 278.24
  Z"
/>
<ellipse fill="#1a1a1a" cx="0.00" cy="0.00" transform="translate(70.38,281.38) rotate(90.6)" rx="3.71" ry="3.10"/>
<ellipse fill="#1a1a1a" cx="0.00" cy="0.00" transform="translate(160.87,281.39) rotate(90.9)" rx="3.70" ry="3.13"/>
<rect fill="#1a1a1a" x="-2.22" y="-1.50" transform="translate(91.45,279.45) rotate(-1.4)" width="4.44" height="3.00" rx="0.85"/>
<path fill="#1a1a1a" d="
  M 113.97 278.28
  A 0.31 0.31 0.0 0 1 114.27 277.96
  L 116.35 277.94
  A 1.77 1.32 -0.7 0 1 118.14 279.23
  L 118.14 279.65
  A 1.77 1.32 -0.7 0 1 116.39 281.00
  L 114.31 281.02
  A 0.31 0.31 0.0 0 1 114.00 280.72
  L 113.97 278.28
  Z"
/>
<rect fill="#1a1a1a" x="-2.24" y="-1.49" transform="translate(135.71,279.45) rotate(-1.4)" width="4.48" height="2.98" rx="0.83"/>
<path fill="#1a1a1a" d="
  M 179.94 278.38
  A 0.44 0.44 0.0 0 1 180.38 277.93
  L 182.65 277.89
  A 1.85 1.28 -0.9 0 1 184.52 279.14
  L 184.52 279.68
  A 1.85 1.28 -0.9 0 1 182.69 280.99
  L 180.42 281.03
  A 0.44 0.44 0.0 0 1 179.98 280.60
  L 179.94 278.38
  Z"
/>
<path fill="#1a1a1a" d="
  M 205.49 278.43
  A 0.43 0.43 0.0 0 1 205.90 277.98
  L 208.37 277.90
  A 1.64 1.37 -1.9 0 1 210.05 279.21
  L 210.06 279.51
  A 1.64 1.37 -1.9 0 1 208.47 280.94
  L 206.00 281.02
  A 0.43 0.43 0.0 0 1 205.56 280.60
  L 205.49 278.43
  Z"
/>
<path fill="#1a1a1a" d="
  M 125.99 279.20
  L 126.82 281.82
  A 0.32 0.32 0.0 0 1 126.51 282.24
  L 124.73 282.19
  A 0.32 0.32 0.0 0 1 124.43 281.76
  L 125.39 279.18
  A 0.32 0.32 0.0 0 1 125.99 279.20
  Z"
/>
<path fill="#1a1a1a" d="
  M 218.77 282.21
  L 217.00 282.21
  A 0.32 0.32 0.0 0 1 216.70 281.78
  L 217.65 279.16
  A 0.32 0.32 0.0 0 1 218.26 279.18
  L 219.07 281.80
  A 0.32 0.32 0.0 0 1 218.77 282.21
  Z"
/>
</svg>
