<?xml version="1.0" encoding="UTF-8" standalone="no"?>
<!DOCTYPE svg PUBLIC "-//W3C//DTD SVG 1.1//EN" "http://www.w3.org/Graphics/SVG/1.1/DTD/svg11.dtd">
<svg xmlns="http://www.w3.org/2000/svg" version="1.1" viewBox="0.00 0.00 313.00 356.00">
<g stroke-width="2.00" fill="none" stroke-linecap="butt">
<path stroke="#c7cad1" stroke-opacity="0.882" vector-effect="non-scaling-stroke" d="
  M 222.74 74.77
  L 222.24 73.43
  Q 222.06 72.95 221.56 72.87
  Q 221.11 72.80 220.72 73.07
  Q 220.41 73.29 220.27 73.84
  Q 219.75 75.88 218.64 77.72
  Q 218.38 78.16 217.91 77.95
  Q 213.88 76.15 210.75 73.27
  Q 210.64 73.16 210.70 73.01
  Q 210.75 72.88 210.74 72.76
  Q 210.69 72.07 211.40 72.37
  Q 211.70 72.49 211.97 72.44"
/>
<path stroke="#c4c3c4" stroke-opacity="0.678" vector-effect="non-scaling-stroke" d="
  M 211.97 72.44
  C 211.43 71.62 210.97 71.00 209.98 70.66
  Q 208.85 70.26 207.89 69.82"
/>
<path stroke="#c4c3c4" stroke-opacity="0.678" vector-effect="non-scaling-stroke" d="
  M 227.27 76.71
  Q 224.08 79.86 223.84 77.36"
/>
<path stroke="#c7cad1" stroke-opacity="0.882" vector-effect="non-scaling-stroke" d="
  M 222.74 74.77
  Q 222.61 76.31 223.84 77.36"
/>
<path stroke="#c7cad1" stroke-opacity="0.882" vector-effect="non-scaling-stroke" d="
  M 227.27 76.71
  Q 228.01 76.69 228.95 76.18
  Q 229.42 75.93 229.78 76.32
  Q 230.14 76.71 229.88 77.25
  Q 228.63 79.86 226.76 81.73
  A 0.57 0.57 0.0 0 0 227.09 82.69
  Q 229.18 83.00 231.12 84.20
  Q 232.30 84.93 231.37 85.95
  L 230.89 86.47"
/>
<path stroke="#c4c3c4" stroke-opacity="0.678" vector-effect="non-scaling-stroke" d="
  M 230.89 86.47
  L 229.39 86.71
  A 1.10 1.10 0.0 0 0 228.76 88.55
  Q 230.32 90.22 231.09 92.25"
/>
<path stroke="#c7cad1" stroke-opacity="0.882" vector-effect="non-scaling-stroke" d="
  M 231.09 92.25
  L 234.38 97.28
  A 0.41 0.41 0.0 0 1 234.12 97.90
  C 232.32 98.26 231.83 96.97 230.48 96.31
  Q 229.71 95.94 228.99 95.63
  Q 228.54 95.43 228.28 95.01
  Q 227.66 94.03 226.46 94.27"
/>
<path stroke="#c7cad1" stroke-opacity="0.882" vector-effect="non-scaling-stroke" d="
  M 226.46 94.27
  Q 226.14 93.51 225.44 92.89
  Q 224.66 92.20 223.91 92.48
  Q 222.57 92.98 223.01 95.64"
/>
<path stroke="#c4c3c4" stroke-opacity="0.678" vector-effect="non-scaling-stroke" d="
  M 223.01 95.64
  L 222.70 96.87"
/>
<path stroke="#c7cad1" stroke-opacity="0.882" vector-effect="non-scaling-stroke" d="
  M 222.70 96.87
  Q 219.98 99.89 219.05 93.19"
/>
<path stroke="#c4c3c4" stroke-opacity="0.678" vector-effect="non-scaling-stroke" d="
  M 219.05 93.19
  Q 218.89 93.24 218.87 92.93
  Q 218.83 92.27 218.72 92.92
  Q 218.66 93.24 218.70 93.57
  Q 218.71 93.62 218.70 93.67
  Q 218.68 93.75 218.66 93.67
  Q 218.64 93.63 218.64 93.59
  Q 218.57 92.56 218.23 91.91
  A 0.78 0.78 0.0 0 0 216.87 91.86
  Q 216.23 92.94 215.14 93.02"
/>
<path stroke="#c7cad1" stroke-opacity="0.882" vector-effect="non-scaling-stroke" d="
  M 207.89 69.82
  Q 208.22 70.71 206.84 70.26
  Q 206.35 70.10 206.33 70.61
  Q 206.29 71.74 207.24 72.53
  Q 211.95 76.46 214.21 82.31
  Q 214.39 82.78 214.14 83.22
  Q 213.70 84.00 212.92 84.43
  Q 212.62 84.59 212.73 84.91
  Q 213.40 86.91 214.89 87.06
  A 0.79 0.79 0.0 0 1 215.49 88.25
  Q 214.15 90.51 212.48 92.51
  Q 212.33 92.69 212.35 92.92
  Q 212.36 92.99 212.34 93.05
  Q 212.12 93.90 212.91 93.46
  Q 213.97 92.87 215.14 93.02"
/>
<path stroke="#c7cad1" stroke-opacity="0.882" vector-effect="non-scaling-stroke" d="
  M 165.52 202.90
  Q 167.86 200.04 169.39 196.83
  Q 169.43 196.75 169.56 196.67
  Q 169.64 196.63 169.64 196.54
  Q 169.67 196.16 169.51 196.51
  Q 169.16 197.21 168.57 197.80
  Q 168.00 198.38 168.28 197.62
  Q 168.57 196.83 169.09 196.08
  A 1.64 1.64 0.0 0 0 169.38 195.15
  L 169.38 194.26
  Q 169.38 193.21 168.42 193.63
  Q 165.11 195.07 162.25 197.14
  Q 159.86 198.87 157.98 196.66
  Q 157.61 196.23 157.63 195.65
  C 157.69 193.87 156.71 192.60 156.42 190.90
  Q 156.11 189.01 155.85 187.24
  Q 155.83 187.04 155.73 187.22
  Q 155.68 187.32 155.49 187.21
  Q 155.36 187.12 155.37 186.97
  Q 155.62 184.17 154.83 181.59
  C 154.15 179.40 154.38 177.13 154.38 174.90
  Q 154.38 174.63 154.12 174.54
  Q 153.90 174.46 153.87 174.23
  Q 153.70 172.99 153.42 171.99
  Q 153.17 171.09 153.08 172.02
  Q 153.05 172.25 152.83 172.29
  Q 152.30 172.39 152.22 172.92
  Q 151.93 174.74 151.50 176.67
  Q 151.49 176.72 151.45 176.74
  Q 151.42 176.77 151.37 176.78
  Q 151.18 176.79 151.18 176.61
  Q 151.16 174.81 151.03 173.03"
/>
<path stroke="#c4c3c4" stroke-opacity="0.678" vector-effect="non-scaling-stroke" d="
  M 165.52 202.90
  Q 166.14 204.96 167.25 205.50
  Q 169.36 206.52 171.42 207.34"
/>
<path stroke="#c7cad1" stroke-opacity="0.882" vector-effect="non-scaling-stroke" d="
  M 171.42 207.34
  Q 172.03 207.91 172.85 208.27
  Q 173.33 208.48 173.53 208.96
  L 173.93 209.96
  A 0.57 0.56 -14.7 0 1 173.47 210.74
  Q 172.71 210.83 172.39 211.46
  Q 172.27 211.72 171.99 211.69
  Q 171.78 211.68 171.76 211.48
  Q 171.68 210.78 171.54 211.47
  Q 171.50 211.66 171.41 211.83
  A 0.73 0.70 89.1 0 1 171.11 212.15
  C 169.96 212.78 168.96 212.37 167.93 213.22
  Q 166.20 214.65 167.47 216.62
  Q 167.51 216.69 167.71 217.13
  Q 167.91 217.57 168.40 217.58"
/>
<path stroke="#c7cad1" stroke-opacity="0.882" vector-effect="non-scaling-stroke" d="
  M 168.40 217.58
  L 172.87 222.29"
/>
<path stroke="#c4c3c4" stroke-opacity="0.678" vector-effect="non-scaling-stroke" d="
  M 172.87 222.29
  Q 175.45 226.42 177.38 230.87
  Q 178.25 232.89 180.40 234.48"
/>
<path stroke="#c7cad1" stroke-opacity="0.882" vector-effect="non-scaling-stroke" d="
  M 180.40 234.48
  Q 182.15 236.13 182.39 237.62
  Q 182.49 238.26 182.09 237.75
  L 179.65 234.64
  Q 179.44 234.37 179.40 234.71
  Q 179.32 235.32 179.39 235.11
  Q 179.53 234.69 179.18 234.44
  Q 178.45 233.90 178.77 234.75
  Q 178.94 235.22 178.92 235.71
  A 0.81 0.81 0.0 0 1 177.67 236.38
  Q 176.68 235.75 176.09 236.50"
/>
<path stroke="#c4c3c4" stroke-opacity="0.678" vector-effect="non-scaling-stroke" d="
  M 176.09 236.50
  L 171.52 233.68"
/>
<path stroke="#c7cad1" stroke-opacity="0.882" vector-effect="non-scaling-stroke" d="
  M 171.52 233.68
  Q 169.12 231.66 166.50 230.01
  Q 166.16 229.79 165.66 229.93"
/>
<path stroke="#c4c3c4" stroke-opacity="0.678" vector-effect="non-scaling-stroke" d="
  M 165.66 229.93
  Q 165.56 230.04 165.47 229.99
  Q 165.33 229.90 165.45 229.79
  Q 165.57 229.69 165.72 229.72
  Q 166.36 229.84 165.78 229.54
  Q 165.01 229.13 164.39 228.59"
/>
<path stroke="#c7cad1" stroke-opacity="0.882" vector-effect="non-scaling-stroke" d="
  M 164.39 228.59
  Q 162.80 226.35 161.91 226.78"
/>
<path stroke="#c4c3c4" stroke-opacity="0.678" vector-effect="non-scaling-stroke" d="
  M 161.91 226.78
  Q 161.57 226.71 160.66 225.18"
/>
<path stroke="#c2bec7" stroke-opacity="0.988" vector-effect="non-scaling-stroke" d="
  M 160.66 225.18
  Q 159.64 223.20 156.79 226.49
  Q 156.63 226.68 156.64 226.93
  Q 156.74 229.63 155.28 231.39
  Q 154.98 231.75 154.95 232.23
  Q 154.81 234.25 152.89 235.76
  Q 152.41 236.14 152.29 235.54
  Q 152.04 234.29 151.01 234.10
  Q 150.38 233.99 150.53 233.37
  Q 150.98 231.46 149.97 229.92
  Q 149.76 229.59 149.44 229.82
  Q 149.26 229.95 149.18 230.25"
/>
<path stroke="#c7cad1" stroke-opacity="0.882" vector-effect="non-scaling-stroke" d="
  M 148.85 229.67
  L 147.70 224.69
  Q 147.60 224.29 147.23 224.13
  Q 146.94 224.01 147.06 223.75
  Q 147.40 222.98 146.57 223.09
  Q 145.81 223.18 145.08 223.15
  Q 144.53 223.13 144.28 223.62
  Q 143.91 224.39 143.30 224.77"
/>
<path stroke="#c7cad1" stroke-opacity="0.882" vector-effect="non-scaling-stroke" d="
  M 143.30 224.77
  Q 142.74 224.66 142.09 224.93
  Q 142.01 224.96 141.98 224.87
  Q 141.94 224.76 141.91 224.79
  Q 141.82 224.89 141.95 224.86
  Q 142.59 224.73 142.90 224.16
  Q 143.22 223.58 142.58 223.75
  L 140.03 224.45
  Q 139.31 224.64 139.32 223.90
  Q 139.34 222.20 140.32 220.86
  Q 140.60 220.47 140.71 219.99
  L 141.57 216.19
  Q 141.68 215.69 141.51 215.22
  Q 140.89 213.39 139.05 212.11
  Q 138.10 211.45 137.20 210.80
  Q 136.85 210.55 136.83 210.08
  Q 136.82 209.79 137.03 209.59
  C 137.88 208.74 139.23 208.35 139.75 207.30
  Q 140.93 204.90 138.96 202.94
  Q 138.61 202.58 138.48 202.10
  C 137.97 200.15 136.84 198.98 136.10 197.26
  Q 135.54 195.93 134.83 195.06
  Q 133.86 193.86 132.87 192.58
  Q 131.53 190.86 130.93 188.57
  Q 130.72 187.78 131.53 187.89
  C 133.48 188.17 135.59 189.68 137.27 190.68
  Q 138.64 191.49 140.07 192.28
  Q 141.76 193.20 143.22 194.47
  Q 144.52 195.60 146.36 195.38
  Q 146.97 195.31 146.47 194.95
  Q 146.24 194.79 146.07 194.81"
/>
<path stroke="#c7cad1" stroke-opacity="0.882" vector-effect="non-scaling-stroke" d="
  M 146.88 194.85
  Q 148.90 192.94 149.11 189.98"
/>
<path stroke="#c4c3c4" stroke-opacity="0.678" vector-effect="non-scaling-stroke" d="
  M 146.88 194.85
  Q 146.46 194.76 146.07 194.81"
/>
<path stroke="#c4c3c4" stroke-opacity="0.678" vector-effect="non-scaling-stroke" d="
  M 148.85 229.67
  Q 149.09 229.72 149.18 230.25"
/>
<path stroke="#c7cad1" stroke-opacity="0.882" vector-effect="non-scaling-stroke" d="
  M 55.43 241.36
  Q 56.52 241.85 55.94 242.76"
/>
<path stroke="#c2bec7" stroke-opacity="0.988" vector-effect="non-scaling-stroke" d="
  M 39.29 242.90
  Q 38.62 242.46 38.82 241.88
  A 0.73 0.72 -81.8 0 1 39.48 241.38
  Q 40.09 241.36 40.28 241.05"
/>
<path stroke="#c7cad1" stroke-opacity="0.882" vector-effect="non-scaling-stroke" d="
  M 172.6687 223.9735
  A 1.63 0.40 53.1 0 0 172.0099 222.4298
  A 1.63 0.40 53.1 0 0 170.7113 221.3665
  A 1.63 0.40 53.1 0 0 171.3701 222.9102
  A 1.63 0.40 53.1 0 0 172.6687 223.9735"
/>
</g>
<path fill="#838b99" fill-opacity="0.765" d="
  M 222.45 66.65
  Q 222.31 68.17 222.40 69.60
  Q 222.40 69.65 222.36 69.66
  Q 222.30 69.68 222.28 69.62
  Q 222.25 69.56 222.27 69.49
  Q 222.53 68.54 222.18 67.77
  A 0.05 0.05 0.0 0 0 222.09 67.80
  L 222.74 74.77
  L 222.24 73.43
  Q 222.06 72.95 221.56 72.87
  Q 221.11 72.80 220.72 73.07
  Q 220.41 73.29 220.27 73.84
  Q 219.75 75.88 218.64 77.72
  Q 218.38 78.16 217.91 77.95
  Q 213.88 76.15 210.75 73.27
  Q 210.64 73.16 210.70 73.01
  Q 210.75 72.88 210.74 72.76
  Q 210.69 72.07 211.40 72.37
  Q 211.70 72.49 211.97 72.44
  Q 214.54 74.32 217.77 75.22
  A 0.65 0.65 0.0 0 0 218.58 74.47
  L 218.51 74.13
  Q 218.37 73.49 218.67 73.21
  L 218.71 75.03
  Q 218.72 75.58 218.16 75.61
  Q 217.96 75.61 217.83 75.44
  Q 217.69 75.24 217.59 75.46
  L 217.47 75.71
  Q 217.33 76.02 217.66 76.09
  Q 218.02 76.17 218.39 76.09
  Q 218.98 75.97 219.02 75.36
  L 219.16 73.21
  Q 220.07 70.53 220.17 67.73
  Q 220.32 63.37 220.33 63.27
  Q 220.97 56.07 221.06 48.85
  Q 221.06 48.69 221.23 48.68
  L 221.23 48.68
  Q 221.40 48.68 221.41 48.85
  Q 221.71 57.75 222.45 66.65
  Z"
/>
<path fill="#838b99" fill-opacity="0.765" d="
  M 201.56 64.12
  Q 201.14 66.05 203.53 66.64
  Q 205.78 67.21 207.89 69.82
  Q 208.22 70.71 206.84 70.26
  Q 206.35 70.10 206.33 70.61
  Q 206.29 71.74 207.24 72.53
  Q 211.95 76.46 214.21 82.31
  Q 214.39 82.78 214.14 83.22
  Q 213.70 84.00 212.92 84.43
  Q 212.62 84.59 212.73 84.91
  Q 213.40 86.91 214.89 87.06
  A 0.79 0.79 0.0 0 1 215.49 88.25
  Q 214.15 90.51 212.48 92.51
  Q 212.33 92.69 212.35 92.92
  Q 212.36 92.99 212.34 93.05
  Q 212.12 93.90 212.91 93.46
  Q 213.97 92.87 215.14 93.02
  Q 214.97 94.67 212.39 95.89
  Q 212.08 96.04 211.82 95.82
  Q 211.39 95.48 211.26 96.01
  Q 211.11 96.62 210.51 96.72
  Q 209.95 96.81 209.74 97.33
  Q 208.94 99.24 207.13 99.88
  Q 205.03 100.62 206.39 98.86
  Q 206.74 98.41 206.96 97.93
  Q 207.23 97.36 207.68 96.98
  Q 210.51 94.63 211.91 92.35
  Q 212.77 90.97 213.50 88.73
  Q 213.72 88.06 213.09 87.75
  L 210.38 86.40
  Q 209.96 86.19 209.75 85.78
  Q 209.48 85.26 209.52 84.69
  Q 209.53 84.55 209.39 84.56
  Q 209.26 84.57 209.16 84.65
  Q 209.12 84.68 209.12 84.75
  L 209.12 85.42
  Q 209.12 86.00 208.64 85.66
  Q 208.24 85.37 208.42 84.66
  A 0.77 0.77 0.0 0 1 209.14 84.08
  C 210.48 84.05 211.72 83.05 211.58 81.60
  Q 211.14 76.96 207.55 74.52
  Q 207.17 74.26 207.00 73.84
  Q 206.27 72.02 204.83 71.09
  Q 204.24 70.71 204.44 71.38
  Q 204.69 72.23 205.59 72.77
  Q 205.66 72.81 205.64 72.88
  Q 205.63 72.93 205.63 72.98
  Q 205.64 73.29 205.47 73.03
  Q 205.02 72.33 204.37 72.21
  L 196.36 61.39
  Q 196.06 60.97 196.55 60.80
  Q 196.95 60.66 197.39 60.82
  A 0.25 0.25 0.0 0 1 197.40 61.29
  Q 197.23 61.36 197.16 61.49
  Q 197.10 61.63 197.23 61.70
  Q 197.51 61.85 197.82 61.81
  Q 198.34 61.76 198.06 62.19
  Q 197.95 62.36 198.03 62.58
  A 0.33 0.30 88.9 0 0 198.20 62.76
  L 201.56 64.12
  Z"
/>
<path fill="#282729" fill-opacity="0.357" d="
  M 233.77 83.94
  L 230.92 83.33
  Q 230.40 83.22 230.03 82.83
  L 229.02 81.75
  Q 228.73 81.44 229.08 81.20
  Q 229.29 81.05 229.54 81.15
  A 0.45 0.44 -74.5 0 0 230.13 80.81
  L 230.79 77.27
  A 1.53 1.52 76.7 0 1 231.35 76.36
  Q 233.21 74.94 233.79 72.65
  Q 233.94 72.02 233.32 72.19
  Q 231.63 72.65 230.46 74.01
  A 1.66 1.64 11.6 0 1 229.66 74.53
  Q 228.05 75.00 227.27 76.71
  Q 224.08 79.86 223.84 77.36
  Q 223.94 75.87 223.07 74.60
  Q 223.01 74.52 222.95 74.60
  Q 222.88 74.70 222.74 74.77
  L 222.09 67.80
  A 0.05 0.05 0.0 0 1 222.18 67.77
  Q 222.53 68.54 222.27 69.49
  Q 222.25 69.56 222.28 69.62
  Q 222.30 69.68 222.36 69.66
  Q 222.40 69.65 222.40 69.60
  Q 222.31 68.17 222.45 66.65
  Q 223.18 67.83 223.37 69.74
  Q 223.54 71.48 225.11 72.80
  A 1.58 1.57 62.3 0 0 226.23 73.15
  Q 227.76 73.02 229.17 73.39
  Q 229.81 73.56 230.30 73.11
  L 243.57 60.88
  A 0.44 0.44 0.0 0 1 244.31 61.20
  Q 244.32 62.25 244.11 63.27
  Q 243.92 64.24 243.25 65.01
  Q 240.21 68.53 236.75 71.55
  Q 236.50 71.76 236.39 72.06
  Q 235.82 73.56 234.58 74.53
  A 1.15 1.14 79.0 0 0 234.16 75.16
  Q 233.60 77.27 232.80 79.19
  Q 232.62 79.61 232.99 79.85
  Q 234.05 80.55 233.48 81.73
  Q 233.26 82.20 233.63 82.57
  Q 234.50 83.44 233.77 83.94
  Z"
/>
<path fill="#282729" fill-opacity="0.357" d="
  M 218.51 74.13
  L 218.58 74.47
  A 0.65 0.65 0.0 0 1 217.77 75.22
  Q 214.54 74.32 211.97 72.44
  C 211.43 71.62 210.97 71.00 209.98 70.66
  Q 208.85 70.26 207.89 69.82
  Q 205.78 67.21 203.53 66.64
  Q 201.14 66.05 201.56 64.12
  Q 202.77 65.42 203.75 65.95
  Q 205.09 66.69 203.92 65.71
  Q 203.04 64.98 201.99 64.23
  Q 201.83 64.12 201.94 63.95
  L 202.08 63.74
  Q 202.10 63.72 202.12 63.73
  Q 203.78 64.97 206.00 65.75
  A 1.95 1.85 74.6 0 1 206.68 66.16
  L 208.79 68.16
  Q 209.25 68.59 209.87 68.62
  Q 210.63 68.65 211.14 69.18
  Q 211.43 69.50 211.83 69.66
  Q 213.31 70.30 214.79 71.23
  C 216.02 72.01 217.33 71.74 218.32 70.71
  A 1.64 1.63 70.0 0 0 218.76 69.76
  Q 218.85 68.94 219.38 68.26
  Q 219.89 67.60 219.81 68.43
  Q 219.63 70.24 218.99 72.11
  A 2.32 2.31 1.9 0 1 217.41 73.58
  Q 216.77 73.75 216.14 73.48
  Q 215.21 73.09 216.02 73.70
  Q 216.95 74.39 218.51 74.13
  Z"
/>
<path fill="#fbfbfb" d="
  M 207.89 69.82
  Q 208.85 70.26 209.98 70.66
  C 210.97 71.00 211.43 71.62 211.97 72.44
  Q 211.70 72.49 211.40 72.37
  Q 210.69 72.07 210.74 72.76
  Q 210.75 72.88 210.70 73.01
  Q 210.64 73.16 210.75 73.27
  Q 213.88 76.15 217.91 77.95
  Q 218.38 78.16 218.64 77.72
  Q 219.75 75.88 220.27 73.84
  Q 220.41 73.29 220.72 73.07
  Q 221.11 72.80 221.56 72.87
  Q 222.06 72.95 222.24 73.43
  L 222.74 74.77
  Q 222.61 76.31 223.84 77.36
  Q 224.08 79.86 227.27 76.71
  Q 228.01 76.69 228.95 76.18
  Q 229.42 75.93 229.78 76.32
  Q 230.14 76.71 229.88 77.25
  Q 228.63 79.86 226.76 81.73
  A 0.57 0.57 0.0 0 0 227.09 82.69
  Q 229.18 83.00 231.12 84.20
  Q 232.30 84.93 231.37 85.95
  L 230.89 86.47
  L 229.39 86.71
  A 1.10 1.10 0.0 0 0 228.76 88.55
  Q 230.32 90.22 231.09 92.25
  L 234.38 97.28
  A 0.41 0.41 0.0 0 1 234.12 97.90
  C 232.32 98.26 231.83 96.97 230.48 96.31
  Q 229.71 95.94 228.99 95.63
  Q 228.54 95.43 228.28 95.01
  Q 227.66 94.03 226.46 94.27
  Q 226.14 93.51 225.44 92.89
  Q 224.66 92.20 223.91 92.48
  Q 222.57 92.98 223.01 95.64
  L 222.70 96.87
  Q 219.98 99.89 219.05 93.19
  Q 218.89 93.24 218.87 92.93
  Q 218.83 92.27 218.72 92.92
  Q 218.66 93.24 218.70 93.57
  Q 218.71 93.62 218.70 93.67
  Q 218.68 93.75 218.66 93.67
  Q 218.64 93.63 218.64 93.59
  Q 218.57 92.56 218.23 91.91
  A 0.78 0.78 0.0 0 0 216.87 91.86
  Q 216.23 92.94 215.14 93.02
  Q 213.97 92.87 212.91 93.46
  Q 212.12 93.90 212.34 93.05
  Q 212.36 92.99 212.35 92.92
  Q 212.33 92.69 212.48 92.51
  Q 214.15 90.51 215.49 88.25
  A 0.79 0.79 0.0 0 0 214.89 87.06
  Q 213.40 86.91 212.73 84.91
  Q 212.62 84.59 212.92 84.43
  Q 213.70 84.00 214.14 83.22
  Q 214.39 82.78 214.21 82.31
  Q 211.95 76.46 207.24 72.53
  Q 206.29 71.74 206.33 70.61
  Q 206.35 70.10 206.84 70.26
  Q 208.22 70.71 207.89 69.82
  Z"
/>
<path fill="#282729" fill-opacity="0.357" d="
  M 215.14 93.02
  Q 216.23 92.94 216.87 91.86
  A 0.78 0.78 0.0 0 1 218.23 91.91
  Q 218.57 92.56 218.64 93.59
  Q 218.64 93.63 218.66 93.67
  Q 218.68 93.75 218.70 93.67
  Q 218.71 93.62 218.70 93.57
  Q 218.66 93.24 218.72 92.92
  Q 218.83 92.27 218.87 92.93
  Q 218.89 93.24 219.05 93.19
  C 218.61 95.18 219.82 96.88 219.29 98.31
  Q 218.74 97.87 218.64 97.40
  Q 218.51 96.83 218.51 97.41
  Q 218.51 97.47 218.46 97.51
  Q 218.37 97.59 218.33 97.48
  Q 218.08 96.81 217.40 96.64
  Q 216.80 96.48 216.27 96.81
  Q 214.11 98.17 211.12 98.46
  Q 210.94 98.48 211.00 98.31
  Q 211.06 98.15 211.15 98.07
  Q 211.27 97.95 211.44 97.93
  Q 213.47 97.66 215.40 96.68
  Q 215.64 96.55 215.37 96.55
  Q 213.60 96.55 212.02 97.37
  Q 210.66 98.08 209.71 99.45
  C 208.50 101.21 206.45 101.89 205.03 103.43
  Q 202.86 105.80 200.28 107.64
  Q 197.76 109.43 195.84 111.42
  Q 191.75 115.64 187.14 120.04
  Q 185.95 121.17 186.32 119.57
  Q 186.67 118.11 188.18 117.11
  Q 188.96 116.59 189.07 115.72
  Q 189.12 115.24 189.50 114.93
  Q 191.41 113.40 193.37 111.37
  Q 199.35 105.22 203.69 100.10
  Q 204.83 98.76 206.10 97.66
  C 207.82 96.16 210.18 94.37 209.50 91.75
  Q 209.37 91.27 209.59 90.83
  Q 210.40 89.25 209.29 87.57
  A 0.39 0.39 0.0 0 1 209.38 87.05
  Q 209.51 86.96 209.66 86.94
  Q 210.11 86.90 209.66 86.83
  Q 204.37 86.01 199.01 85.94
  Q 195.82 85.90 194.85 85.53
  Q 191.03 84.08 195.12 84.07
  Q 200.18 84.05 205.80 83.71
  A 2.83 2.83 0.0 0 0 208.15 79.59
  L 204.37 72.21
  Q 205.02 72.33 205.47 73.03
  Q 205.64 73.29 205.63 72.98
  Q 205.63 72.93 205.64 72.88
  Q 205.66 72.81 205.59 72.77
  Q 204.69 72.23 204.44 71.38
  Q 204.24 70.71 204.83 71.09
  Q 206.27 72.02 207.00 73.84
  Q 207.17 74.26 207.55 74.52
  Q 211.14 76.96 211.58 81.60
  C 211.72 83.05 210.48 84.05 209.14 84.08
  A 0.77 0.77 0.0 0 0 208.42 84.66
  Q 208.24 85.37 208.64 85.66
  Q 209.12 86.00 209.12 85.42
  L 209.12 84.75
  Q 209.12 84.68 209.16 84.65
  Q 209.26 84.57 209.39 84.56
  Q 209.53 84.55 209.52 84.69
  Q 209.48 85.26 209.75 85.78
  Q 209.96 86.19 210.38 86.40
  L 213.09 87.75
  Q 213.72 88.06 213.50 88.73
  Q 212.77 90.97 211.91 92.35
  Q 210.51 94.63 207.68 96.98
  Q 207.23 97.36 206.96 97.93
  Q 206.74 98.41 206.39 98.86
  Q 205.03 100.62 207.13 99.88
  Q 208.94 99.24 209.74 97.33
  Q 209.95 96.81 210.51 96.72
  Q 211.11 96.62 211.26 96.01
  Q 211.39 95.48 211.82 95.82
  Q 212.08 96.04 212.39 95.89
  Q 214.97 94.67 215.14 93.02
  Z"
/>
<path fill="#838b99" fill-opacity="0.765" d="
  M 233.77 83.94
  Q 237.84 84.33 242.16 84.46
  Q 243.21 84.50 242.24 84.89
  Q 242.06 84.97 242.13 85.19
  Q 242.26 85.61 241.83 85.65
  L 233.45 86.44
  L 230.89 86.47
  L 231.37 85.95
  Q 232.30 84.93 231.12 84.20
  Q 229.18 83.00 227.09 82.69
  A 0.57 0.57 0.0 0 1 226.76 81.73
  Q 228.63 79.86 229.88 77.25
  Q 230.14 76.71 229.78 76.32
  Q 229.42 75.93 228.95 76.18
  Q 228.01 76.69 227.27 76.71
  Q 228.05 75.00 229.66 74.53
  A 1.66 1.64 11.6 0 0 230.46 74.01
  Q 231.63 72.65 233.32 72.19
  Q 233.94 72.02 233.79 72.65
  Q 233.21 74.94 231.35 76.36
  A 1.53 1.52 76.7 0 0 230.79 77.27
  L 230.13 80.81
  A 0.45 0.44 -74.5 0 1 229.54 81.15
  Q 229.29 81.05 229.08 81.20
  Q 228.73 81.44 229.02 81.75
  L 230.03 82.83
  Q 230.40 83.22 230.92 83.33
  L 233.77 83.94
  Z"
/>
<path fill="#282729" fill-opacity="0.357" d="
  M 218.67 73.21
  Q 219.01 73.09 219.16 73.21
  L 219.02 75.36
  Q 218.98 75.97 218.39 76.09
  Q 218.02 76.17 217.66 76.09
  Q 217.33 76.02 217.47 75.71
  L 217.59 75.46
  Q 217.69 75.24 217.83 75.44
  Q 217.96 75.61 218.16 75.61
  Q 218.72 75.58 218.71 75.03
  L 218.67 73.21
  Z"
/>
<path fill="#838b99" fill-opacity="0.765" d="
  M 223.84 77.36
  Q 222.61 76.31 222.74 74.77
  Q 222.88 74.70 222.95 74.60
  Q 223.01 74.52 223.07 74.60
  Q 223.94 75.87 223.84 77.36
  Z"
/>
<path fill="#282729" fill-opacity="0.357" d="
  M 230.89 86.47
  L 233.45 86.44
  L 234.79 93.39
  Q 234.88 93.87 235.28 94.15
  Q 235.55 94.34 235.85 94.76
  Q 238.39 98.27 240.81 102.09
  Q 235.77 98.11 231.56 91.12
  A 0.14 0.14 0.0 0 0 231.32 91.11
  Q 231.04 91.53 231.09 92.25
  Q 230.32 90.22 228.76 88.55
  A 1.10 1.10 0.0 0 1 229.39 86.71
  L 230.89 86.47
  Z"
/>
<path fill="#838b99" fill-opacity="0.765" d="
  M 240.81 102.09
  Q 248.66 110.54 255.46 118.81
  Q 257.21 120.94 255.08 119.19
  Q 245.65 111.46 236.34 102.58
  Q 235.51 101.06 234.20 100.08
  Q 232.75 99.00 231.65 97.99
  Q 230.64 97.05 229.05 96.23
  Q 227.58 95.46 226.46 94.27
  Q 227.66 94.03 228.28 95.01
  Q 228.54 95.43 228.99 95.63
  Q 229.71 95.94 230.48 96.31
  C 231.83 96.97 232.32 98.26 234.12 97.90
  A 0.41 0.41 0.0 0 0 234.38 97.28
  L 231.09 92.25
  Q 231.04 91.53 231.32 91.11
  A 0.14 0.14 0.0 0 1 231.56 91.12
  Q 235.77 98.11 240.81 102.09
  Z"
/>
<path fill="#838b99" fill-opacity="0.765" d="
  M 226.46 94.27
  Q 225.82 94.22 225.27 93.47
  Q 224.74 92.75 224.07 93.03
  A 0.76 0.74 77.6 0 0 223.62 93.75
  Q 223.68 94.99 223.01 95.64
  Q 222.57 92.98 223.91 92.48
  Q 224.66 92.20 225.44 92.89
  Q 226.14 93.51 226.46 94.27
  Z"
/>
<path fill="#282729" fill-opacity="0.357" d="
  M 226.46 94.27
  Q 227.58 95.46 229.05 96.23
  Q 230.64 97.05 231.65 97.99
  Q 232.75 99.00 234.20 100.08
  Q 235.51 101.06 236.34 102.58
  Q 234.70 102.06 233.64 100.80
  Q 233.34 100.45 232.88 100.39
  Q 231.20 100.20 230.09 98.83
  Q 229.81 98.50 229.41 98.33
  Q 227.76 97.66 225.97 97.91
  Q 225.37 98.00 225.15 97.47
  A 0.64 0.61 85.3 0 0 224.75 97.11
  Q 224.50 97.05 224.27 97.15
  Q 224.13 97.22 224.07 97.37
  Q 223.57 98.50 223.30 99.82
  Q 223.26 100.02 223.05 100.02
  Q 222.99 100.03 222.97 99.97
  Q 222.90 99.77 222.85 99.98
  Q 222.78 100.31 222.67 100.30
  L 222.70 96.87
  L 223.01 95.64
  Q 223.68 94.99 223.62 93.75
  A 0.76 0.74 77.6 0 1 224.07 93.03
  Q 224.74 92.75 225.27 93.47
  Q 225.82 94.22 226.46 94.27
  Z"
/>
<path fill="#838b99" fill-opacity="0.765" d="
  M 219.05 93.19
  Q 219.98 99.89 222.70 96.87
  L 222.67 100.30
  C 222.71 102.59 222.07 104.78 222.05 106.91
  Q 222.01 114.20 221.44 121.45
  Q 221.42 121.65 221.23 121.64
  L 221.22 121.64
  Q 221.02 121.62 221.03 121.43
  Q 221.36 116.35 221.06 111.27
  Q 220.94 109.20 220.14 104.80
  Q 219.56 101.57 219.29 98.31
  C 219.82 96.88 218.61 95.18 219.05 93.19
  Z"
/>
<path fill="#838b99" fill-opacity="0.765" d="
  M 157.13 186.07
  C 157.43 187.59 157.25 188.81 157.76 190.24
  Q 158.33 191.87 158.41 193.92
  Q 158.54 197.31 161.41 196.46
  Q 163.63 195.80 165.04 193.92
  Q 165.59 193.18 166.35 192.89
  Q 167.07 192.61 167.78 192.26
  Q 168.92 191.68 169.97 190.66
  Q 172.20 188.49 175.21 187.20
  Q 176.11 186.81 175.96 187.78
  L 175.86 188.42
  A 1.15 1.14 69.7 0 1 175.61 188.97
  Q 173.11 192.10 171.55 195.75
  Q 171.37 196.16 170.95 196.28
  A 0.74 0.73 -4.2 0 0 170.41 196.90
  Q 170.16 198.81 169.11 200.57
  A 1.87 1.86 -29.8 0 0 168.85 201.52
  L 168.85 202.45
  Q 168.85 202.99 168.37 203.24
  Q 167.15 203.86 165.52 202.90
  Q 167.86 200.04 169.39 196.83
  Q 169.43 196.75 169.56 196.67
  Q 169.64 196.63 169.64 196.54
  Q 169.67 196.16 169.51 196.51
  Q 169.16 197.21 168.57 197.80
  Q 168.00 198.38 168.28 197.62
  Q 168.57 196.83 169.09 196.08
  A 1.64 1.64 0.0 0 0 169.38 195.15
  L 169.38 194.26
  Q 169.38 193.21 168.42 193.63
  Q 165.11 195.07 162.25 197.14
  Q 159.86 198.87 157.98 196.66
  Q 157.61 196.23 157.63 195.65
  C 157.69 193.87 156.71 192.60 156.42 190.90
  Q 156.11 189.01 155.85 187.24
  Q 155.83 187.04 155.73 187.22
  Q 155.68 187.32 155.49 187.21
  Q 155.36 187.12 155.37 186.97
  Q 155.62 184.17 154.83 181.59
  C 154.15 179.40 154.38 177.13 154.38 174.90
  Q 154.38 174.63 154.12 174.54
  Q 153.90 174.46 153.87 174.23
  Q 153.70 172.99 153.42 171.99
  Q 153.17 171.09 153.08 172.02
  Q 153.05 172.25 152.83 172.29
  Q 152.30 172.39 152.22 172.92
  Q 151.93 174.74 151.50 176.67
  Q 151.49 176.72 151.45 176.74
  Q 151.42 176.77 151.37 176.78
  Q 151.18 176.79 151.18 176.61
  Q 151.16 174.81 151.03 173.03
  Q 152.34 155.67 152.99 138.29
  Q 153.00 138.12 153.17 138.12
  L 153.18 138.12
  Q 153.35 138.12 153.35 138.29
  Q 153.77 150.72 154.41 163.16
  Q 154.56 166.26 154.69 169.33
  Q 155.04 177.99 157.13 186.07
  Z"
/>
<path fill="#282729" fill-opacity="0.357" d="
  M 149.11 189.98
  L 147.72 192.94
  Q 147.52 193.36 147.11 193.54
  Q 146.54 193.79 146.88 194.85
  Q 146.46 194.76 146.07 194.81
  L 145.66 192.15
  Q 145.58 191.67 145.11 191.58
  Q 142.84 191.13 140.62 190.51
  Q 140.50 190.48 140.44 190.58
  Q 140.38 190.69 140.40 190.84
  Q 140.41 190.88 140.37 190.87
  Q 138.05 189.88 135.92 188.46
  Q 135.21 187.98 135.96 188.40
  Q 136.15 188.51 136.36 188.42
  A 0.51 0.51 0.0 0 0 136.39 187.52
  Q 133.42 185.83 130.80 183.96
  Q 130.55 183.79 130.70 183.43
  A 0.07 0.07 0.0 0 1 130.81 183.41
  Q 130.91 183.50 131.03 183.56
  Q 131.66 183.87 131.09 183.45
  Q 127.66 180.93 123.74 178.27
  Q 122.67 177.55 121.51 176.57
  Q 120.39 175.63 119.00 175.23
  A 0.77 0.77 0.0 0 0 118.12 176.35
  Q 120.16 179.94 123.19 183.19
  Q 124.34 184.43 125.30 185.99
  Q 126.24 187.53 127.39 188.89
  Q 127.71 189.27 127.81 189.76
  Q 128.24 191.80 129.89 193.32
  Q 130.22 193.63 130.28 194.07
  Q 130.41 195.05 130.99 195.92
  Q 131.29 196.37 131.13 195.85
  Q 131.09 195.73 131.21 195.62
  Q 131.38 195.45 131.55 195.62
  Q 131.73 195.79 131.90 195.97
  Q 132.33 196.40 132.01 195.88
  Q 131.89 195.68 131.93 195.44
  Q 131.98 195.12 131.68 195.00
  Q 131.39 194.89 131.28 194.60
  Q 131.17 194.29 131.44 194.48
  Q 132.38 195.10 132.84 196.11
  Q 134.25 199.22 135.44 202.38
  Q 136.87 206.17 133.41 208.04
  Q 129.96 209.91 127.00 208.75
  C 125.15 208.02 123.05 208.98 121.23 209.39
  Q 120.53 209.55 121.24 209.68
  L 126.48 210.63
  Q 127.53 210.83 126.46 210.76
  Q 125.75 210.71 125.19 210.74
  Q 125.14 210.74 125.10 210.77
  Q 125.06 210.81 125.08 210.86
  Q 125.11 210.90 125.16 210.90
  Q 127.23 210.81 129.45 210.99
  Q 129.92 211.03 130.07 211.49
  A 0.88 0.88 0.0 0 0 130.78 212.09
  C 134.89 212.74 138.04 214.44 137.27 219.33
  Q 137.10 220.36 136.94 219.33
  Q 136.77 218.25 136.94 217.17
  Q 136.95 217.10 136.88 217.12
  Q 136.84 217.13 136.85 217.17
  Q 137.07 218.77 136.46 220.01
  Q 136.23 220.48 136.26 221.00
  Q 136.37 223.21 135.21 224.52
  Q 134.60 225.22 134.79 224.31
  L 134.91 223.73
  Q 135.05 223.12 134.69 223.63
  Q 134.39 224.06 134.36 224.54
  Q 134.33 225.04 133.93 225.35
  Q 132.49 226.48 132.28 228.12
  Q 132.22 228.59 132.50 228.21
  Q 132.54 228.17 132.58 228.15
  Q 133.07 227.89 132.81 228.38
  Q 132.20 229.55 131.34 230.47
  Q 131.10 230.72 131.07 231.07
  Q 131.00 231.69 132.12 231.91
  A 1.03 1.02 -58.0 0 0 132.97 231.71
  Q 134.72 230.32 136.98 229.68
  A 1.66 1.58 10.7 0 0 137.80 229.15
  Q 138.18 228.67 138.71 228.48
  Q 139.12 228.33 138.93 228.73
  Q 138.84 228.90 138.71 229.03
  Q 138.00 229.73 138.83 229.18
  Q 138.95 229.10 139.05 228.99
  Q 139.24 228.77 139.53 228.66
  Q 141.57 227.89 143.75 227.87
  Q 144.01 227.87 143.78 227.74
  L 143.49 227.59
  Q 143.18 227.42 142.87 227.58
  Q 141.68 228.18 140.39 228.13
  Q 139.65 228.10 140.24 227.65
  Q 140.49 227.46 140.79 227.41
  Q 140.97 227.37 140.81 227.30
  Q 140.76 227.28 140.72 227.25
  Q 140.55 227.08 140.79 227.00
  Q 142.26 226.53 143.58 225.66
  Q 144.36 226.19 145.67 223.87
  A 0.66 0.66 0.0 0 1 146.62 223.66
  Q 147.09 223.99 146.62 224.30
  Q 146.04 224.68 146.64 225.01
  Q 147.09 225.26 146.68 225.59
  A 0.14 0.14 0.0 0 0 146.72 225.83
  Q 147.77 226.19 147.79 227.77
  Q 147.79 228.61 148.85 229.67
  Q 149.09 229.72 149.18 230.25
  L 149.77 234.80
  Q 148.68 233.72 148.86 231.65
  Q 148.86 231.63 148.87 231.64
  Q 149.00 231.99 148.87 232.23
  Q 148.50 232.86 148.40 232.13
  Q 148.28 231.29 147.31 231.06
  A 0.09 0.08 20.8 0 0 147.21 231.10
  Q 146.60 232.12 146.21 233.22
  Q 145.84 234.27 145.51 233.21
  Q 144.70 230.63 141.74 231.13
  Q 139.91 231.44 138.16 232.19
  Q 136.48 232.91 134.98 234.29
  Q 132.36 236.68 129.67 238.63
  Q 125.16 241.89 120.60 245.21
  Q 119.50 246.01 118.53 246.97
  Q 117.09 248.38 114.58 248.64
  A 0.72 0.71 15.5 0 1 113.93 247.50
  L 118.38 241.56
  Q 118.71 241.12 119.13 240.77
  Q 119.82 240.18 120.28 239.36
  Q 122.06 236.17 124.82 233.36
  Q 125.65 232.52 126.06 231.46
  Q 126.22 231.03 126.67 230.89
  Q 127.16 230.73 127.45 230.29
  Q 129.73 226.79 131.73 223.26
  Q 132.67 221.59 132.66 219.32
  Q 132.66 217.41 131.23 216.12
  Q 127.69 212.95 123.47 212.42
  Q 113.66 211.20 104.51 210.84
  Q 100.63 210.68 104.46 210.09
  C 107.86 209.57 111.59 209.93 115.21 209.20
  Q 117.38 208.77 119.78 208.77
  A 1.65 1.59 -61.5 0 0 120.70 208.48
  Q 121.42 208.00 122.35 208.10
  Q 123.23 208.20 124.14 208.00
  Q 126.75 207.40 129.54 207.06
  Q 130.29 206.97 129.55 206.87
  Q 129.34 206.84 129.25 206.65
  A 0.21 0.21 0.0 0 1 129.35 206.37
  Q 130.44 205.80 131.54 205.64
  Q 132.02 205.56 132.11 205.08
  Q 132.40 203.42 131.77 201.86
  Q 129.38 196.01 126.38 192.47
  Q 125.08 190.93 123.87 189.39
  Q 122.58 187.74 121.24 186.21
  Q 117.06 181.42 113.16 176.37
  Q 113.12 176.32 110.98 173.73
  Q 109.31 171.72 108.34 169.84
  Q 108.09 169.35 107.61 169.15
  A 0.96 0.96 0.0 0 1 107.12 168.66
  Q 106.27 166.73 104.76 165.44
  Q 104.38 165.11 104.23 164.63
  Q 103.51 162.24 101.89 160.02
  Q 101.71 159.77 101.70 159.45
  Q 101.69 159.24 101.85 159.10
  Q 102.23 158.75 102.69 158.98
  Q 103.21 159.22 103.79 159.14
  Q 104.25 159.07 104.68 159.27
  Q 107.79 160.68 110.15 163.00
  Q 112.32 165.15 114.75 166.97
  Q 120.01 170.92 124.90 175.23
  Q 125.29 175.57 125.80 175.57
  Q 126.04 175.58 126.22 175.74
  Q 133.37 181.88 141.68 187.35
  Q 142.13 187.65 142.67 187.62
  Q 144.84 187.50 146.79 188.61
  A 1.35 1.35 0.0 0 0 148.77 187.76
  Q 149.01 186.74 149.19 185.70
  Q 149.22 185.53 149.40 185.55
  L 149.40 185.55
  Q 149.58 185.57 149.56 185.75
  Q 149.36 187.86 149.11 189.98
  Z"
/>
<path fill="#fbfbfb" d="
  M 165.52 202.90
  Q 166.14 204.96 167.25 205.50
  Q 169.36 206.52 171.42 207.34
  Q 172.03 207.91 172.85 208.27
  Q 173.33 208.48 173.53 208.96
  L 173.93 209.96
  A 0.57 0.56 -14.7 0 1 173.47 210.74
  Q 172.71 210.83 172.39 211.46
  Q 172.27 211.72 171.99 211.69
  Q 171.78 211.68 171.76 211.48
  Q 171.68 210.78 171.54 211.47
  Q 171.50 211.66 171.41 211.83
  A 0.73 0.70 89.1 0 1 171.11 212.15
  C 169.96 212.78 168.96 212.37 167.93 213.22
  Q 166.20 214.65 167.47 216.62
  Q 167.51 216.69 167.71 217.13
  Q 167.91 217.57 168.40 217.58
  L 172.87 222.29
  Q 175.45 226.42 177.38 230.87
  Q 178.25 232.89 180.40 234.48
  Q 182.15 236.13 182.39 237.62
  Q 182.49 238.26 182.09 237.75
  L 179.65 234.64
  Q 179.44 234.37 179.40 234.71
  Q 179.32 235.32 179.39 235.11
  Q 179.53 234.69 179.18 234.44
  Q 178.45 233.90 178.77 234.75
  Q 178.94 235.22 178.92 235.71
  A 0.81 0.81 0.0 0 1 177.67 236.38
  Q 176.68 235.75 176.09 236.50
  L 171.52 233.68
  Q 169.12 231.66 166.50 230.01
  Q 166.16 229.79 165.66 229.93
  Q 165.56 230.04 165.47 229.99
  Q 165.33 229.90 165.45 229.79
  Q 165.57 229.69 165.72 229.72
  Q 166.36 229.84 165.78 229.54
  Q 165.01 229.13 164.39 228.59
  Q 162.80 226.35 161.91 226.78
  Q 161.57 226.71 160.66 225.18
  Q 159.64 223.20 156.79 226.49
  Q 156.63 226.68 156.64 226.93
  Q 156.74 229.63 155.28 231.39
  Q 154.98 231.75 154.95 232.23
  Q 154.81 234.25 152.89 235.76
  Q 152.41 236.14 152.29 235.54
  Q 152.04 234.29 151.01 234.10
  Q 150.38 233.99 150.53 233.37
  Q 150.98 231.46 149.97 229.92
  Q 149.76 229.59 149.44 229.82
  Q 149.26 229.95 149.18 230.25
  Q 149.09 229.72 148.85 229.67
  L 147.70 224.69
  Q 147.60 224.29 147.23 224.13
  Q 146.94 224.01 147.06 223.75
  Q 147.40 222.98 146.57 223.09
  Q 145.81 223.18 145.08 223.15
  Q 144.53 223.13 144.28 223.62
  Q 143.91 224.39 143.30 224.77
  Q 142.74 224.66 142.09 224.93
  Q 142.01 224.96 141.98 224.87
  Q 141.94 224.76 141.91 224.79
  Q 141.82 224.89 141.95 224.86
  Q 142.59 224.73 142.90 224.16
  Q 143.22 223.58 142.58 223.75
  L 140.03 224.45
  Q 139.31 224.64 139.32 223.90
  Q 139.34 222.20 140.32 220.86
  Q 140.60 220.47 140.71 219.99
  L 141.57 216.19
  Q 141.68 215.69 141.51 215.22
  Q 140.89 213.39 139.05 212.11
  Q 138.10 211.45 137.20 210.80
  Q 136.85 210.55 136.83 210.08
  Q 136.82 209.79 137.03 209.59
  C 137.88 208.74 139.23 208.35 139.75 207.30
  Q 140.93 204.90 138.96 202.94
  Q 138.61 202.58 138.48 202.10
  C 137.97 200.15 136.84 198.98 136.10 197.26
  Q 135.54 195.93 134.83 195.06
  Q 133.86 193.86 132.87 192.58
  Q 131.53 190.86 130.93 188.57
  Q 130.72 187.78 131.53 187.89
  C 133.48 188.17 135.59 189.68 137.27 190.68
  Q 138.64 191.49 140.07 192.28
  Q 141.76 193.20 143.22 194.47
  Q 144.52 195.60 146.36 195.38
  Q 146.97 195.31 146.47 194.95
  Q 146.24 194.79 146.07 194.81
  Q 146.46 194.76 146.88 194.85
  Q 148.90 192.94 149.11 189.98
  Q 150.01 186.76 150.14 183.35
  Q 150.23 180.86 150.68 178.22
  Q 151.11 175.64 151.03 173.03
  Q 151.16 174.81 151.18 176.61
  Q 151.18 176.79 151.37 176.78
  Q 151.42 176.77 151.45 176.74
  Q 151.49 176.72 151.50 176.67
  Q 151.93 174.74 152.22 172.92
  Q 152.30 172.39 152.83 172.29
  Q 153.05 172.25 153.08 172.02
  Q 153.17 171.09 153.42 171.99
  Q 153.70 172.99 153.87 174.23
  Q 153.90 174.46 154.12 174.54
  Q 154.38 174.63 154.38 174.90
  C 154.38 177.13 154.15 179.40 154.83 181.59
  Q 155.62 184.17 155.37 186.97
  Q 155.36 187.12 155.49 187.21
  Q 155.68 187.32 155.73 187.22
  Q 155.83 187.04 155.85 187.24
  Q 156.11 189.01 156.42 190.90
  C 156.71 192.60 157.69 193.87 157.63 195.65
  Q 157.61 196.23 157.98 196.66
  Q 159.86 198.87 162.25 197.14
  Q 165.11 195.07 168.42 193.63
  Q 169.38 193.21 169.38 194.26
  L 169.38 195.15
  A 1.64 1.64 0.0 0 1 169.09 196.08
  Q 168.57 196.83 168.28 197.62
  Q 168.00 198.38 168.57 197.80
  Q 169.16 197.21 169.51 196.51
  Q 169.67 196.16 169.64 196.54
  Q 169.64 196.63 169.56 196.67
  Q 169.43 196.75 169.39 196.83
  Q 167.86 200.04 165.52 202.90
  Z
  M 172.6687 223.9735
  A 1.63 0.40 53.1 0 0 172.0099 222.4298
  A 1.63 0.40 53.1 0 0 170.7113 221.3665
  A 1.63 0.40 53.1 0 0 171.3701 222.9102
  A 1.63 0.40 53.1 0 0 172.6687 223.9735
  Z"
/>
<path fill="#282729" fill-opacity="0.357" d="
  M 157.06 233.48
  Q 157.52 227.99 158.38 225.88
  Q 159.08 224.16 160.66 225.18
  Q 161.57 226.71 161.91 226.78
  Q 163.67 229.37 164.39 228.59
  Q 165.01 229.13 165.78 229.54
  Q 166.36 229.84 165.72 229.72
  Q 165.57 229.69 165.45 229.79
  Q 165.33 229.90 165.47 229.99
  Q 165.56 230.04 165.66 229.93
  Q 168.33 232.78 171.52 233.68
  L 176.09 236.50
  Q 176.67 237.21 177.53 237.58
  Q 177.99 237.78 178.32 238.15
  Q 179.49 239.50 181.07 240.64
  Q 183.52 242.42 185.71 244.37
  Q 187.19 245.70 187.40 243.72
  Q 187.58 241.99 185.30 240.24
  Q 184.87 239.92 184.68 239.42
  Q 183.39 236.14 180.40 234.48
  Q 178.25 232.89 177.38 230.87
  Q 175.45 226.42 172.87 222.29
  Q 172.26 218.86 168.40 217.58
  Q 167.57 215.79 168.40 214.60
  Q 169.12 213.57 170.50 213.55
  Q 173.00 213.50 175.30 212.49
  Q 175.81 212.27 176.03 211.76
  Q 176.29 211.17 176.86 210.93
  Q 177.65 210.59 177.35 209.79
  Q 176.96 208.74 175.71 208.54
  Q 175.48 208.50 175.67 208.37
  Q 175.81 208.27 175.97 208.36
  A 0.04 0.04 0.0 0 0 176.02 208.31
  Q 175.81 207.72 175.50 207.67
  Q 174.16 207.45 171.42 207.34
  Q 169.36 206.52 167.25 205.50
  Q 166.14 204.96 165.52 202.90
  Q 167.15 203.86 168.37 203.24
  Q 168.85 202.99 168.85 202.45
  L 168.85 201.52
  A 1.87 1.86 -29.8 0 1 169.11 200.57
  Q 170.16 198.81 170.41 196.90
  A 0.74 0.73 -4.2 0 1 170.95 196.28
  Q 171.37 196.16 171.55 195.75
  Q 173.11 192.10 175.61 188.97
  A 1.15 1.14 69.7 0 0 175.86 188.42
  L 175.96 187.78
  Q 176.11 186.81 175.21 187.20
  Q 172.20 188.49 169.97 190.66
  Q 168.92 191.68 167.78 192.26
  Q 167.07 192.61 166.35 192.89
  Q 165.59 193.18 165.04 193.92
  Q 163.63 195.80 161.41 196.46
  Q 158.54 197.31 158.41 193.92
  Q 158.33 191.87 157.76 190.24
  C 157.25 188.81 157.43 187.59 157.13 186.07
  Q 158.51 188.12 159.03 190.50
  Q 159.18 191.21 159.82 190.86
  L 160.10 190.71
  Q 160.37 190.57 160.43 190.27
  Q 160.54 189.81 160.96 189.56
  Q 161.25 189.38 161.60 189.38
  Q 163.48 189.36 165.43 189.39
  Q 165.96 189.40 166.36 189.05
  Q 167.40 188.12 168.69 187.80
  Q 169.17 187.68 169.41 187.24
  Q 170.07 186.07 171.42 185.79
  Q 171.89 185.69 172.21 185.33
  Q 173.40 183.97 175.01 182.94
  Q 176.60 181.94 177.77 180.69
  Q 179.48 178.86 181.82 177.89
  C 183.94 177.00 184.88 175.07 187.14 174.38
  Q 188.05 174.10 188.67 173.35
  Q 189.42 172.43 190.40 173.23
  Q 190.71 173.48 190.46 173.81
  Q 189.82 174.64 189.61 175.60
  A 1.77 1.76 78.9 0 1 188.91 176.65
  Q 188.14 177.19 187.86 178.07
  Q 187.68 178.64 187.26 179.08
  Q 185.37 181.01 184.01 183.16
  Q 183.08 184.64 181.95 185.96
  Q 181.17 186.87 180.40 187.69
  Q 179.65 188.49 179.38 189.43
  Q 178.83 191.32 176.97 192.73
  Q 176.42 193.15 176.23 193.82
  Q 175.96 194.77 175.72 195.69
  Q 175.44 196.74 174.82 197.80
  Q 172.86 201.15 173.45 204.90
  Q 173.58 205.74 174.43 205.64
  Q 174.96 205.58 175.34 205.95
  Q 175.86 206.45 176.54 206.59
  C 178.31 206.94 180.06 207.35 181.87 207.44
  Q 185.09 207.61 187.99 208.30
  Q 190.53 208.91 193.19 209.01
  Q 195.74 209.11 198.41 209.66
  Q 200.63 210.12 205.78 209.83
  A 0.76 0.75 -5.5 0 1 206.56 210.47
  L 206.60 210.72
  A 0.35 0.33 84.5 0 1 206.29 211.11
  C 201.39 211.36 196.43 210.80 191.66 211.57
  C 188.78 212.04 185.19 211.33 182.58 212.37
  Q 181.06 212.98 179.33 213.16
  Q 178.93 213.21 178.83 213.60
  C 178.66 214.19 175.58 214.04 175.54 216.48
  Q 175.49 220.06 177.56 222.17
  Q 178.39 223.03 178.39 224.26
  A 1.13 1.12 -67.4 0 0 178.73 225.09
  C 179.57 225.94 179.82 226.93 180.62 227.77
  Q 181.47 228.64 181.93 229.86
  Q 182.24 230.70 182.96 231.44
  Q 185.34 233.89 187.29 237.06
  Q 189.01 239.85 191.09 241.92
  Q 193.21 244.04 195.11 246.56
  Q 196.46 248.36 198.10 249.99
  Q 199.65 251.55 200.92 253.69
  Q 201.41 254.52 202.06 255.15
  Q 202.75 255.81 203.27 256.55
  Q 205.43 259.60 207.70 263.45
  Q 208.02 263.99 207.81 264.48
  A 0.76 0.76 0.0 0 1 206.58 264.74
  Q 205.80 263.98 204.71 263.83
  Q 204.19 263.75 203.77 263.42
  Q 202.71 262.56 201.47 261.80
  Q 201.22 261.64 200.92 261.61
  Q 200.78 261.59 200.64 261.62
  Q 200.19 261.70 199.90 261.34
  Q 198.15 259.15 196.33 257.85
  Q 193.13 255.56 190.38 252.63
  Q 190.04 252.27 189.62 252.00
  Q 188.93 251.55 188.37 251.01
  C 186.24 248.95 184.24 246.65 181.65 245.10
  C 180.17 244.21 179.29 242.87 177.66 241.96
  Q 175.06 240.51 173.02 238.11
  Q 172.70 237.73 172.51 237.27
  Q 172.33 236.85 171.96 236.57
  Q 170.44 235.44 169.01 234.19
  Q 167.55 232.90 166.19 232.64
  Q 164.54 232.31 162.86 232.50
  Q 163.06 232.39 163.30 232.37
  Q 163.83 232.31 163.59 232.78
  Q 162.86 234.26 161.53 233.91
  Q 160.72 233.70 160.25 232.81
  Q 159.76 231.88 159.64 230.94
  Q 159.57 230.42 159.14 230.72
  Q 158.82 230.94 158.82 231.31
  Q 158.82 231.63 158.55 231.47
  Q 158.19 231.27 158.40 230.92
  Q 158.40 230.92 158.32 232.04
  Q 158.31 232.25 158.10 232.24
  Q 157.91 232.23 157.91 232.10
  Q 157.89 231.65 157.82 232.09
  Q 157.59 233.64 157.06 233.48
  Z
  M 178.83 232.12
  Q 178.87 232.86 179.53 233.21
  Q 180.14 233.54 179.79 232.94
  L 178.42 230.64
  Q 178.08 230.06 178.01 230.73
  Q 177.95 231.29 178.40 231.49
  Q 178.81 231.66 178.83 232.12
  Z
  M 176.47 240.69
  Q 176.56 240.60 176.48 240.51
  Q 175.12 239.00 174.01 237.72
  Q 173.55 237.20 173.73 237.86
  Q 173.77 238.00 173.81 238.14
  Q 173.89 238.40 174.09 238.57
  Q 175.25 239.55 176.26 240.68
  Q 176.36 240.79 176.47 240.69
  L 176.47 240.69
  Z"
/>
<path fill="#838b99" fill-opacity="0.765" d="
  M 146.07 194.81
  Q 146.24 194.79 146.47 194.95
  Q 146.97 195.31 146.36 195.38
  Q 144.52 195.60 143.22 194.47
  Q 141.76 193.20 140.07 192.28
  Q 138.64 191.49 137.27 190.68
  C 135.59 189.68 133.48 188.17 131.53 187.89
  Q 130.72 187.78 130.93 188.57
  Q 131.53 190.86 132.87 192.58
  Q 133.86 193.86 134.83 195.06
  Q 135.54 195.93 136.10 197.26
  C 136.84 198.98 137.97 200.15 138.48 202.10
  Q 138.61 202.58 138.96 202.94
  Q 140.93 204.90 139.75 207.30
  C 139.23 208.35 137.88 208.74 137.03 209.59
  Q 136.82 209.79 136.83 210.08
  Q 136.85 210.55 137.20 210.80
  Q 138.10 211.45 139.05 212.11
  Q 140.89 213.39 141.51 215.22
  Q 141.68 215.69 141.57 216.19
  L 140.71 219.99
  Q 140.60 220.47 140.32 220.86
  Q 139.34 222.20 139.32 223.90
  Q 139.31 224.64 140.03 224.45
  L 142.58 223.75
  Q 143.22 223.58 142.90 224.16
  Q 142.59 224.73 141.95 224.86
  Q 141.82 224.89 141.91 224.79
  Q 141.94 224.76 141.98 224.87
  Q 142.01 224.96 142.09 224.93
  Q 142.74 224.66 143.30 224.77
  Q 142.19 225.45 141.04 226.02
  Q 140.84 226.11 140.95 226.30
  L 140.95 226.31
  Q 141.06 226.50 141.23 226.36
  Q 142.31 225.53 143.58 225.66
  Q 142.26 226.53 140.79 227.00
  Q 140.55 227.08 140.72 227.25
  Q 140.76 227.28 140.81 227.30
  Q 140.97 227.37 140.79 227.41
  Q 140.49 227.46 140.24 227.65
  Q 139.65 228.10 140.39 228.13
  Q 141.68 228.18 142.87 227.58
  Q 143.18 227.42 143.49 227.59
  L 143.78 227.74
  Q 144.01 227.87 143.75 227.87
  Q 141.57 227.89 139.53 228.66
  Q 139.24 228.77 139.05 228.99
  Q 138.95 229.10 138.83 229.18
  Q 138.00 229.73 138.71 229.03
  Q 138.84 228.90 138.93 228.73
  Q 139.12 228.33 138.71 228.48
  Q 138.18 228.67 137.80 229.15
  A 1.66 1.58 10.7 0 1 136.98 229.68
  Q 134.72 230.32 132.97 231.71
  A 1.03 1.02 -58.0 0 1 132.12 231.91
  Q 131.00 231.69 131.07 231.07
  Q 131.10 230.72 131.34 230.47
  Q 132.20 229.55 132.81 228.38
  Q 133.07 227.89 132.58 228.15
  Q 132.54 228.17 132.50 228.21
  Q 132.22 228.59 132.28 228.12
  Q 132.49 226.48 133.93 225.35
  Q 134.33 225.04 134.36 224.54
  Q 134.39 224.06 134.69 223.63
  Q 135.05 223.12 134.91 223.73
  L 134.79 224.31
  Q 134.60 225.22 135.21 224.52
  Q 136.37 223.21 136.26 221.00
  Q 136.23 220.48 136.46 220.01
  Q 137.07 218.77 136.85 217.17
  Q 136.84 217.13 136.88 217.12
  Q 136.95 217.10 136.94 217.17
  Q 136.77 218.25 136.94 219.33
  Q 137.10 220.36 137.27 219.33
  C 138.04 214.44 134.89 212.74 130.78 212.09
  A 0.88 0.88 0.0 0 1 130.07 211.49
  Q 129.92 211.03 129.45 210.99
  Q 127.23 210.81 125.16 210.90
  Q 125.11 210.90 125.08 210.86
  Q 125.06 210.81 125.10 210.77
  Q 125.14 210.74 125.19 210.74
  Q 125.75 210.71 126.46 210.76
  Q 127.53 210.83 126.48 210.63
  L 121.24 209.68
  Q 120.53 209.55 121.23 209.39
  C 123.05 208.98 125.15 208.02 127.00 208.75
  Q 129.96 209.91 133.41 208.04
  Q 136.87 206.17 135.44 202.38
  Q 134.25 199.22 132.84 196.11
  Q 132.38 195.10 131.44 194.48
  Q 131.17 194.29 131.28 194.60
  Q 131.39 194.89 131.68 195.00
  Q 131.98 195.12 131.93 195.44
  Q 131.89 195.68 132.01 195.88
  Q 132.33 196.40 131.90 195.97
  Q 131.73 195.79 131.55 195.62
  Q 131.38 195.45 131.21 195.62
  Q 131.09 195.73 131.13 195.85
  Q 131.29 196.37 130.99 195.92
  Q 130.41 195.05 130.28 194.07
  Q 130.22 193.63 129.89 193.32
  Q 128.24 191.80 127.81 189.76
  Q 127.71 189.27 127.39 188.89
  Q 126.24 187.53 125.30 185.99
  Q 124.34 184.43 123.19 183.19
  Q 120.16 179.94 118.12 176.35
  A 0.77 0.77 0.0 0 1 119.00 175.23
  Q 120.39 175.63 121.51 176.57
  Q 122.67 177.55 123.74 178.27
  Q 127.66 180.93 131.09 183.45
  Q 131.66 183.87 131.03 183.56
  Q 130.91 183.50 130.81 183.41
  A 0.07 0.07 0.0 0 0 130.70 183.43
  Q 130.55 183.79 130.80 183.96
  Q 133.42 185.83 136.39 187.52
  A 0.51 0.51 0.0 0 1 136.36 188.42
  Q 136.15 188.51 135.96 188.40
  Q 135.21 187.98 135.92 188.46
  Q 138.05 189.88 140.37 190.87
  Q 140.41 190.88 140.40 190.84
  Q 140.38 190.69 140.44 190.58
  Q 140.50 190.48 140.62 190.51
  Q 142.84 191.13 145.11 191.58
  Q 145.58 191.67 145.66 192.15
  L 146.07 194.81
  Z"
/>
<path fill="#838b99" fill-opacity="0.765" d="
  M 149.11 189.98
  Q 148.90 192.94 146.88 194.85
  Q 146.54 193.79 147.11 193.54
  Q 147.52 193.36 147.72 192.94
  L 149.11 189.98
  Z"
/>
<path fill="#838b99" fill-opacity="0.765" d="
  M 171.42 207.34
  Q 174.16 207.45 175.50 207.67
  Q 175.81 207.72 176.02 208.31
  A 0.04 0.04 0.0 0 1 175.97 208.36
  Q 175.81 208.27 175.67 208.37
  Q 175.48 208.50 175.71 208.54
  Q 176.96 208.74 177.35 209.79
  Q 177.65 210.59 176.86 210.93
  Q 176.29 211.17 176.03 211.76
  Q 175.81 212.27 175.30 212.49
  Q 173.00 213.50 170.50 213.55
  Q 169.12 213.57 168.40 214.60
  Q 167.57 215.79 168.40 217.58
  Q 167.91 217.57 167.71 217.13
  Q 167.51 216.69 167.47 216.62
  Q 166.20 214.65 167.93 213.22
  C 168.96 212.37 169.96 212.78 171.11 212.15
  A 0.73 0.70 89.1 0 0 171.41 211.83
  Q 171.50 211.66 171.54 211.47
  Q 171.68 210.78 171.76 211.48
  Q 171.78 211.68 171.99 211.69
  Q 172.27 211.72 172.39 211.46
  Q 172.71 210.83 173.47 210.74
  A 0.57 0.56 -14.7 0 0 173.93 209.96
  L 173.53 208.96
  Q 173.33 208.48 172.85 208.27
  Q 172.03 207.91 171.42 207.34
  Z"
/>
<ellipse fill="#282729" fill-opacity="0.357" cx="0.00" cy="0.00" transform="translate(209.18,210.52) rotate(0.3)" rx="2.26" ry="0.44"/>
<path fill="#fbfbfb" d="
  M 55.43 241.36
  Q 56.52 241.85 55.94 242.76
  L 52.80 243.22
  A 0.74 0.73 66.4 0 0 52.34 244.41
  Q 62.53 256.98 72.17 267.13
  Q 72.45 267.43 72.14 267.15
  L 50.03 247.44
  A 0.68 0.68 0.0 0 0 48.92 247.78
  Q 47.18 255.06 46.78 262.29
  Q 46.78 262.34 46.79 262.39
  Q 46.80 262.46 46.85 262.42
  Q 46.90 262.39 46.89 262.34
  Q 46.44 254.66 45.14 247.52
  A 0.83 0.83 0.0 0 0 43.92 246.95
  Q 42.35 247.84 42.17 249.35
  Q 42.11 249.78 41.75 250.01
  Q 39.94 251.18 38.20 252.31
  Q 36.45 253.45 35.02 254.79
  Q 31.01 258.53 27.10 262.36
  Q 27.00 262.45 26.91 262.36
  L 26.91 262.36
  Q 26.81 262.26 26.91 262.15
  Q 29.92 258.94 33.03 255.73
  C 34.22 254.50 35.01 253.10 35.85 251.64
  A 2.26 2.16 -2.0 0 1 36.58 250.89
  Q 38.00 250.01 38.91 248.82
  A 0.04 0.04 0.0 0 1 38.98 248.85
  Q 38.95 249.02 39.12 249.02
  Q 39.28 249.02 39.35 248.88
  Q 40.48 246.68 41.96 244.74
  A 0.90 0.90 0.0 0 0 41.42 243.31
  L 39.29 242.90
  Q 38.62 242.46 38.82 241.88
  A 0.73 0.72 -81.8 0 1 39.48 241.38
  Q 40.09 241.36 40.28 241.05
  Q 41.06 240.97 41.43 240.67
  Q 41.82 240.35 41.54 239.91
  Q 39.93 237.45 38.35 235.49
  Q 31.44 226.94 21.01 216.46
  Q 20.95 216.40 21.01 216.34
  L 21.01 216.33
  Q 21.16 216.17 21.32 216.32
  Q 29.59 223.74 37.85 231.19
  Q 39.46 232.64 41.02 233.82
  Q 42.70 235.08 44.23 236.49
  A 0.48 0.48 0.0 0 0 45.03 236.21
  C 45.13 235.50 45.60 234.97 45.71 234.20
  Q 46.72 227.06 47.17 219.65
  Q 47.17 219.63 47.14 219.62
  Q 47.07 219.61 47.19 219.62
  Q 47.21 219.62 47.21 219.64
  Q 47.47 226.28 48.05 232.74
  Q 48.22 234.70 48.98 236.57
  Q 49.21 237.13 49.75 236.85
  Q 51.69 235.85 53.12 234.56
  Q 61.16 227.35 69.70 219.62
  Q 69.75 219.58 69.71 219.54
  L 69.70 219.53
  Q 69.66 219.49 69.61 219.54
  Q 62.87 226.67 55.83 234.32
  C 54.37 235.89 53.42 237.81 51.93 239.39
  A 0.75 0.75 0.0 0 0 52.31 240.63
  L 55.43 241.36
  Z"
/>
<path fill="#838b99" fill-opacity="0.765" d="
  M 168.40 217.58
  Q 172.26 218.86 172.87 222.29
  L 168.40 217.58
  Z"
/>
<ellipse fill="#838b99" fill-opacity="0.765" cx="0.00" cy="0.00" transform="translate(171.69,222.67) rotate(53.1)" rx="1.63" ry="0.40"/>
<path fill="#838b99" fill-opacity="0.765" d="
  M 148.85 229.67
  Q 147.79 228.61 147.79 227.77
  Q 147.77 226.19 146.72 225.83
  A 0.14 0.14 0.0 0 1 146.68 225.59
  Q 147.09 225.26 146.64 225.01
  Q 146.04 224.68 146.62 224.30
  Q 147.09 223.99 146.62 223.66
  A 0.66 0.66 0.0 0 0 145.67 223.87
  Q 144.36 226.19 143.58 225.66
  Q 142.31 225.53 141.23 226.36
  Q 141.06 226.50 140.95 226.31
  L 140.95 226.30
  Q 140.84 226.11 141.04 226.02
  Q 142.19 225.45 143.30 224.77
  Q 143.91 224.39 144.28 223.62
  Q 144.53 223.13 145.08 223.15
  Q 145.81 223.18 146.57 223.09
  Q 147.40 222.98 147.06 223.75
  Q 146.94 224.01 147.23 224.13
  Q 147.60 224.29 147.70 224.69
  L 148.85 229.67
  Z"
/>
<path fill="#888092" fill-opacity="0.976" d="
  M 160.66 225.18
  Q 159.08 224.16 158.38 225.88
  Q 157.52 227.99 157.06 233.48
  Q 153.77 247.46 153.71 263.00
  Q 153.68 271.58 152.94 284.16
  Q 152.94 284.25 152.85 284.25
  Q 152.82 284.25 152.80 284.25
  Q 152.77 284.25 152.77 284.20
  Q 152.44 276.23 152.44 268.25
  Q 152.43 264.23 151.46 253.78
  Q 150.57 244.18 149.77 234.80
  L 149.18 230.25
  Q 149.26 229.95 149.44 229.82
  Q 149.76 229.59 149.97 229.92
  Q 150.98 231.46 150.53 233.37
  Q 150.38 233.99 151.01 234.10
  Q 152.04 234.29 152.29 235.54
  Q 152.41 236.14 152.89 235.76
  Q 154.81 234.25 154.95 232.23
  Q 154.98 231.75 155.28 231.39
  Q 156.74 229.63 156.64 226.93
  Q 156.63 226.68 156.79 226.49
  Q 159.64 223.20 160.66 225.18
  Z"
/>
<path fill="#838b99" fill-opacity="0.765" d="
  M 164.39 228.59
  Q 163.67 229.37 161.91 226.78
  Q 162.80 226.35 164.39 228.59
  Z"
/>
<path fill="#838b99" fill-opacity="0.765" d="
  M 165.66 229.93
  Q 166.16 229.79 166.50 230.01
  Q 169.12 231.66 171.52 233.68
  Q 168.33 232.78 165.66 229.93
  Z"
/>
<path fill="#838b99" fill-opacity="0.765" d="
  M 178.40 231.49
  Q 177.95 231.29 178.01 230.73
  Q 178.08 230.06 178.42 230.64
  L 179.79 232.94
  Q 180.14 233.54 179.53 233.21
  Q 178.87 232.86 178.83 232.12
  Q 178.81 231.66 178.40 231.49
  Z"
/>
<path fill="#838b99" fill-opacity="0.765" d="
  M 180.40 234.48
  Q 183.39 236.14 184.68 239.42
  Q 184.87 239.92 185.30 240.24
  Q 187.58 241.99 187.40 243.72
  Q 187.19 245.70 185.71 244.37
  Q 183.52 242.42 181.07 240.64
  Q 179.49 239.50 178.32 238.15
  Q 177.99 237.78 177.53 237.58
  Q 176.67 237.21 176.09 236.50
  Q 176.68 235.75 177.67 236.38
  A 0.81 0.81 0.0 0 0 178.92 235.71
  Q 178.94 235.22 178.77 234.75
  Q 178.45 233.90 179.18 234.44
  Q 179.53 234.69 179.39 235.11
  Q 179.32 235.32 179.40 234.71
  Q 179.44 234.37 179.65 234.64
  L 182.09 237.75
  Q 182.49 238.26 182.39 237.62
  Q 182.15 236.13 180.40 234.48
  Z"
/>
<path fill="#888092" fill-opacity="0.976" d="
  M 40.28 241.05
  Q 40.09 241.36 39.48 241.38
  A 0.73 0.72 -81.8 0 0 38.82 241.88
  Q 38.62 242.46 39.29 242.90
  L 34.44 242.31
  Q 34.33 242.30 34.32 242.20
  L 34.31 241.94
  Q 34.30 241.59 34.66 241.55
  L 40.28 241.05
  Z"
/>
<path fill="#838b99" fill-opacity="0.765" d="
  M 55.43 241.36
  Q 59.50 241.44 63.54 241.79
  Q 63.68 241.81 63.68 241.95
  L 63.68 241.96
  Q 63.68 242.10 63.54 242.11
  Q 59.74 242.41 55.94 242.76
  Q 56.52 241.85 55.43 241.36
  Z"
/>
</svg>
